<?xml version="1.0" encoding="UTF-8"?>
<svg version="1.1" xmlns="http://www.w3.org/2000/svg" width="512" height="512">
<path d="M0 0 C0.65677734 0.21962402 1.31355469 0.43924805 1.99023438 0.66552734 C15.9215295 5.48553714 29.12238955 13.28006972 39.0625 24.3125 C42.34141439 27.31235785 44.81472263 28.20368066 49.046875 29.26171875 C51 30 51 30 53 33 C52.814375 34.8253125 52.814375 34.8253125 52.625 36.6875 C52.47573573 41.79565489 54.40746319 45.30125132 56.75 49.6875 C63.44278361 62.32550035 65.70330718 74.90699642 67 89 C67.56170898 88.77860352 68.12341797 88.55720703 68.70214844 88.32910156 C85.680875 81.70980898 102.65743543 76.59671709 121 76 C121.98355469 75.96003906 122.96710938 75.92007813 123.98046875 75.87890625 C148.13313883 75.36884986 171.55900909 81.00704997 193 92 C193.12955078 90.1128125 193.12955078 90.1128125 193.26171875 88.1875 C194.62314648 70.75266257 199.2319935 56.58078537 207 41 C206.22269531 40.86851563 205.44539063 40.73703125 204.64453125 40.6015625 C201.22081951 39.82275658 200.03038578 38.85757999 198 36 C197.44197903 32.09385318 197.41607182 29.94888329 199.5 26.5625 C202.95315512 24.40427805 206.08182132 24.44472917 210 25 C211.6744239 25.6469365 213.34302621 26.30959426 215 27 C218.72617266 26.59448224 220.32601685 24.94411209 222.8125 22.25 C231.9980695 12.80974743 231.9980695 12.80974743 238.1875 12.375 C242 13 242 13 244.5625 15.0625 C246.47218753 18.96490496 246.255663 20.86369834 245 25 C242.93233061 27.50626593 240.66845467 29.44723941 238.171875 31.51171875 C225.43104426 42.27119983 218.01965222 55.25654531 213 71 C212.64421875 72.04414063 212.64421875 72.04414063 212.28125 73.109375 C210.16948256 80.12789619 210.24823038 87.72609754 210 95 C209.88978516 96.23556641 209.88978516 96.23556641 209.77734375 97.49609375 C209.63399844 99.76132793 209.63399844 99.76132793 211 103 C213.44286067 105.38734111 216.04323658 107.40970647 218.765625 109.47265625 C236.90269249 123.30741693 250.64899217 143.94093676 259 165 C259 165.66 259 166.32 259 167 C259.70382812 167.1340625 260.40765625 167.268125 261.1328125 167.40625 C264.07542071 168.01561846 266.96666302 168.7445878 269.875 169.5 C291.23470341 174.81400388 311.78865223 171.33794593 331.0625 160.875 C348.98653565 149.9595701 361.13453016 132.87614557 367.5 113.0625 C373.20825875 89.03174999 367.77795033 66.50039379 355.08984375 45.8984375 C343.15943253 28.50502484 324.29170425 17.30251441 303.68554688 13.38378906 C299.16132038 12.73723597 294.68686463 12.75002516 290.125 12.8125 C289.16408447 12.81604492 288.20316895 12.81958984 287.21313477 12.82324219 C282.06875918 12.86671701 277.05042249 13.13390872 271.9375 13.75 C268.31549319 14.10017959 267.18634424 14.08242149 263.75 12.5625 C261.65371594 9.4929412 261.25846392 7.56741027 261.53125 3.8984375 C262 2 262 2 263.875 -0.375 C271.67197701 -4.42942804 280.5766198 -4.35875598 289.1875 -4.3125 C290.28956787 -4.30686035 291.39163574 -4.3012207 292.52709961 -4.29541016 C318.52492476 -3.90974807 340.98973486 6.40025448 359.58984375 24.5234375 C379.77016883 45.7298808 386.94361038 70.38464945 386.34375 99.19140625 C385.29605416 126.40530568 371.37509676 148.78942947 351.8125 166.9375 C347.7808024 170.48539389 343.65356972 173.32850627 339 176 C340.175625 177.1446875 340.175625 177.1446875 341.375 178.3125 C346.34924993 184.30132782 346.5194862 193.38851002 346.3046875 200.89453125 C346 203 346 203 344.5 205.625 C340.7296686 207.69868227 338.28535449 207.4761505 334 207 C331.28140484 205.22419556 330.95814795 203.84761563 330.0859375 200.671875 C329.73402344 198.73054688 329.73402344 198.73054688 329.375 196.75 C329.13523437 195.46609375 328.89546875 194.1821875 328.6484375 192.859375 C328.04095248 189.24374126 327.49866264 185.63176943 327 182 C326.00742187 182.33773437 325.01484375 182.67546875 323.9921875 183.0234375 C304.69362157 189.42837935 284.90078225 191.38777275 265 186 C265.13277344 186.54527344 265.26554687 187.09054688 265.40234375 187.65234375 C265.57894531 188.40644531 265.75554687 189.16054687 265.9375 189.9375 C266.11152344 190.66839844 266.28554688 191.39929688 266.46484375 192.15234375 C267.63083064 198.35675574 268.05057286 204.2204255 267.89453125 210.51953125 C267.61194049 226.98185061 269.63496018 237.77046429 279.56396484 251.0222168 C284.39514541 257.67597296 287.00021484 263.65535047 286 272 C284.19158898 279.0593394 281.33482289 284.21409993 275 288 C270.39560126 290.21381511 266.4322255 291.06052424 261.33740234 291.02783203 C260.52556488 291.02381378 259.71372742 291.01979553 258.87728882 291.01565552 C258.25778351 291.0104892 257.6382782 291.00532288 257 291 C257.01571045 292.3003418 257.0314209 293.60068359 257.04760742 294.94042969 C257.10236155 299.81585368 257.13651393 304.6912511 257.16479492 309.56689453 C257.17977873 311.66752714 257.20017281 313.76812901 257.22631836 315.86865234 C257.43424136 333.0161847 257.12241426 349.96524003 244.78515625 363.34375 C236.56496668 370.97035914 225.90891364 377.06257451 214.46264648 377.15771484 C213.12622353 377.17310806 213.12622353 377.17310806 211.76280212 377.18881226 C210.80853836 377.19611359 209.8542746 377.20341492 208.87109375 377.2109375 C206.8469969 377.23899038 204.82290846 377.26765472 202.79882812 377.296875 C199.6101084 377.33823898 196.42154825 377.37513124 193.23266602 377.40136719 C190.15348093 377.42889169 187.0750069 377.47474348 183.99609375 377.5234375 C182.56166176 377.5283168 182.56166176 377.5283168 181.09825134 377.53329468 C179.76655663 377.55814438 179.76655663 377.55814438 178.40795898 377.58349609 C177.23691872 377.59562637 177.23691872 377.59562637 176.04222107 377.60800171 C173.43865623 378.10774828 172.55905561 378.87694284 171 381 C170.62325482 383.79251583 170.39808059 386.38779201 170.3125 389.1875 C170.27833984 389.93708984 170.24417969 390.68667969 170.20898438 391.45898438 C170.12665706 393.30546838 170.06164719 395.15270994 170 397 C171.12474731 396.96072388 171.12474731 396.96072388 172.2722168 396.9206543 C203.23878244 395.98068708 203.23878244 395.98068708 217.0625 407.74609375 C219.10540238 409.36991888 219.10540238 409.36991888 222.4375 408.5 C223.283125 408.005 224.12875 407.51 225 407 C228.18666086 405.40666957 231.53199853 405.61624574 235 406 C237.73883355 407.59029045 237.94967699 408.83465297 238.875 411.875 C239.02746169 415.68654214 238.38594144 417.05733889 236 420 C231.75862069 423 231.75862069 423 229 423 C229.2165625 423.71800781 229.433125 424.43601562 229.65625 425.17578125 C231.53542874 432.1618022 232.32439806 438.65789875 232.375 445.875 C232.39530273 447.06863159 232.39530273 447.06863159 232.41601562 448.28637695 C232.36620341 454.89133857 231.04256232 459.63492784 226.625 464.75 C221.47091092 469.16779064 217.80408607 470.44263732 211.0428772 470.38768005 C210.24725132 470.39306559 209.45162545 470.39845113 208.6318897 470.40399987 C205.96879076 470.41829482 203.30618782 470.41117198 200.64306641 470.40405273 C198.73252462 470.40975554 196.82198624 470.41671946 194.91145325 470.42485046 C189.7233792 470.44280798 184.53547406 470.44160846 179.34737825 470.43590808 C175.01584763 470.43281961 170.6843496 470.43890496 166.35282362 470.44494683 C156.13330019 470.45899931 145.91386035 470.45742507 135.69433594 470.44604492 C125.15320797 470.43456599 114.61233449 470.44863402 104.07124007 470.4754414 C95.0197065 470.49759834 85.96825281 470.50423569 76.91669405 470.49836498 C71.51123041 470.49499384 66.10592987 470.49742089 60.70048904 470.51461601 C55.61638489 470.53008262 50.53265759 470.52613259 45.44856834 470.50731087 C43.58416376 470.50362405 41.71973128 470.50673614 39.8553524 470.51719666 C37.30683107 470.53040231 34.75955808 470.51886342 32.21109009 470.50120544 C31.47615566 470.51081045 30.74122123 470.52041546 29.98401606 470.53031152 C24.47818487 470.45201189 21.44478825 469.01623134 17 466 C13.08791311 461.77071688 10.77135744 458.14672138 10.69702148 452.33911133 C10.67205849 450.96297417 10.67205849 450.96297417 10.64659119 449.55903625 C10.63396996 448.08541878 10.63396996 448.08541878 10.62109375 446.58203125 C10.60409927 445.56904465 10.5871048 444.55605804 10.56959534 443.51237488 C10.51648483 440.27914642 10.47616189 437.04593102 10.4375 433.8125 C10.39362546 430.56842138 10.34699792 427.32444403 10.29469299 424.08049011 C10.26264165 422.06177875 10.23578135 420.04297737 10.21446228 418.02412415 C10.20097244 417.11615585 10.1874826 416.20818756 10.17358398 415.27270508 C10.16407211 414.46980545 10.15456024 413.66690582 10.14476013 412.8396759 C10.19898831 410.98250214 10.19898831 410.98250214 9 410 C8.42307692 402.96153846 8.42307692 402.96153846 10.5 399.5 C14.14163726 397.31501764 16.77363235 397.7987444 21 398 C21.99 397.67 22.98 397.34 24 397 C25.48123547 396.9193378 26.96582204 396.89238807 28.44921875 396.90234375 C29.29677734 396.90556641 30.14433594 396.90878906 31.01757812 396.91210938 C31.89865234 396.92048828 32.77972656 396.92886719 33.6875 396.9375 C35.02651367 396.94426758 35.02651367 396.94426758 36.39257812 396.95117188 C38.59511987 396.96295017 40.79752599 396.97939836 43 397 C42.98428955 396.42032471 42.9685791 395.84064941 42.95239258 395.2434082 C42.88977209 392.59987261 42.85092482 389.95649345 42.8125 387.3125 C42.78736328 386.40048828 42.76222656 385.48847656 42.73632812 384.54882812 C42.64297049 375.99104477 42.64297049 375.99104477 46 372 C48.85324437 370.57337781 50.83454549 370.68966132 54 371 C55.65 372.32 57.3 373.64 59 375 C59 382.26 59 389.52 59 397 C90.35 397 121.7 397 154 397 C154 390.4 154 383.8 154 377 C158.23591994 368.52816011 160.8902309 364.79250611 169.6958313 361.615448 C173.86772373 360.50112731 178.0154911 360.60000562 182.30859375 360.62890625 C184.29231946 360.61152682 186.27604338 360.59394241 188.25976562 360.57617188 C191.35135182 360.56610956 194.44282194 360.56250294 197.53442383 360.56420898 C200.54282309 360.56061929 203.55035096 360.53321133 206.55859375 360.50390625 C207.47136581 360.51208878 208.38413788 360.5202713 209.3245697 360.52870178 C217.39945465 360.43602918 223.68643733 358.05085013 230 353 C230.66 353 231.32 353 232 353 C232.2784375 352.43410156 232.556875 351.86820312 232.84375 351.28515625 C233.6063838 349.77792391 234.39773709 348.28483812 235.21875 346.80859375 C235.6415625 346.02613281 236.064375 345.24367188 236.5 344.4375 C236.9228125 343.67308594 237.345625 342.90867187 237.78125 342.12109375 C239.56657897 337.54904937 240.23705565 332.83393439 241 328 C239.21384277 328.03927612 239.21384277 328.03927612 237.39160156 328.0793457 C232.97121999 328.16988561 228.55092023 328.22726286 224.12988281 328.2746582 C222.21698217 328.29979381 220.30417749 328.33390784 218.39160156 328.37719727 C215.64103527 328.43789252 212.89173901 328.46621845 210.140625 328.48828125 C208.85916595 328.52699089 208.85916595 328.52699089 207.55181885 328.56648254 C201.6332902 328.56927465 201.6332902 328.56927465 198.43261719 325.69213867 C197 323 197 323 196.9375 319.4375 C198.23867491 315.22781646 199.25861657 314.26913787 203 312 C205.94493771 311.47160287 208.81690101 311.53288773 211.80078125 311.609375 C212.63715622 311.61503479 213.47353119 311.62069458 214.33525085 311.62652588 C216.99492711 311.64883732 219.65323405 311.69902212 222.3125 311.75 C224.12042319 311.77007185 225.92836759 311.78832142 227.73632812 311.8046875 C232.15807611 311.84868473 236.57880625 311.91767454 241 312 C240.97905273 311.18321777 240.95810547 310.36643555 240.93652344 309.52490234 C240.8531487 305.80839445 240.80127012 302.09208367 240.75 298.375 C240.71648437 297.08980469 240.68296875 295.80460937 240.6484375 294.48046875 C240.53787722 283.81140219 240.53787722 283.81140219 242.703125 280.2890625 C247.31310095 275.69476674 250.56637949 274.6528794 257.0625 274.4375 C262.93141268 274.46082852 262.93141268 274.46082852 268 272 C269.05319675 268.40712034 269.24869616 266.58489197 267.76831055 263.10327148 C267.14738525 262.11915283 266.52645996 261.13503418 265.88671875 260.12109375 C265.21576172 259.03505859 264.54480469 257.94902344 263.85351562 256.83007812 C263.13226385 255.69873807 262.41025143 254.5678826 261.6875 253.4375 C260.28930003 251.21087847 258.90056073 248.97858759 257.51171875 246.74609375 C256.88740967 245.76310303 256.26310059 244.7801123 255.61987305 243.76733398 C252.70582086 238.78906999 251.75300878 235.15029499 251.69140625 229.36328125 C251.66860596 228.07252686 251.64580566 226.78177246 251.62231445 225.4519043 C251.61318024 224.77574066 251.60404602 224.09957703 251.59463501 223.40292358 C250.99159921 184.17467192 238.6587926 152.70502465 210.83203125 124.828125 C187.66065234 103.0913718 155.27569667 92.17212024 123.78125 92.75 C89.60889889 95.009329 57.58369389 108.93330631 34.56811523 134.76220703 C12.04479638 161.07326704 1.90835783 193.55506705 4 228 C6.07615925 253.48108233 16.57729151 277.58673657 33 297 C33.8146875 297.96679688 34.629375 298.93359375 35.46875 299.9296875 C40.43655095 305.60492846 45.7286906 310.32833763 51.640625 314.99609375 C55.866423 318.58522351 58.71526167 322.60945129 59.19287109 328.29663086 C59.27984313 331.17698654 59.33439113 334.05611588 59.375 336.9375 C59.43107422 338.44086914 59.43107422 338.44086914 59.48828125 339.97460938 C59.57673866 347.34114612 59.57673866 347.34114612 56.66796875 350.6640625 C53.4413762 352.27972085 51.56474223 352.53091906 48 352 C44.8640843 350.22015595 44.15897264 349.47691793 43 346 C42.87011251 342.65900515 42.75218401 339.3240208 42.74609375 335.98046875 C42.61321078 332.2247764 42.23062061 330.28400115 39.83984375 327.33984375 C38.90269531 326.56769531 37.96554688 325.79554688 37 325 C36.00230055 324.10754871 35.00895179 323.21021479 34.01953125 322.30859375 C33.50036133 321.84533691 32.98119141 321.38208008 32.44628906 320.90478516 C6.14013405 297.27956226 -10.15696015 264.23873074 -13 229 C-13.69426842 215.39055871 -14.3695703 200.1087109 -10 187 C-11.16402344 187.2165625 -11.16402344 187.2165625 -12.3515625 187.4375 C-31.57820324 190.74136189 -48.74730879 188.21065597 -67 182 C-67.14179687 182.94230469 -67.28359375 183.88460937 -67.4296875 184.85546875 C-68.04472781 188.24661566 -68.4470082 189.70230738 -71 192 C-74.375 193 -74.375 193 -78 193 C-81.33347978 191.18832621 -82.65904111 189.95468489 -83.9375 186.375 C-84.02327077 181.74337846 -83.07345249 177.48898316 -82 173 C-82.70769531 172.77183594 -83.41539063 172.54367188 -84.14453125 172.30859375 C-89.9975843 169.62627806 -94.43371134 164.46727475 -99 160 C-99.886875 159.13890625 -100.77375 158.2778125 -101.6875 157.390625 C-111.82637649 146.93490862 -118.62915222 133.83244769 -123 120 C-123.31839844 119.03191406 -123.63679688 118.06382812 -123.96484375 117.06640625 C-130.36901016 93.42706389 -126.76706052 66.37093051 -115 45 C-110.87177513 38.28021343 -110.87177513 38.28021343 -106.5 36.875 C-102.66219218 37.01206456 -100.98038566 37.63322315 -98 40 C-96.55869672 42.88260656 -96.71626507 44.77811523 -97 48 C-98.03399451 50.75853919 -99.39279769 53.32602253 -100.75 55.9375 C-109.86864851 74.67334746 -112.88972372 96.28603602 -106.390625 116.515625 C-102.02678916 127.44973054 -97.00948911 137.24654648 -89 146 C-88.40960938 146.68191406 -87.81921875 147.36382812 -87.2109375 148.06640625 C-73.84599372 162.5972281 -53.48057554 171.12246286 -33.9921875 172.16015625 C-24.03407413 172.41634932 -14.47701713 171.15900571 -5 168 C-3.8127689 165.77882586 -2.79599522 163.62186081 -1.8125 161.3125 C8.25582823 138.82441214 24.590234 113.7144062 46.81640625 101.4453125 C49.07200346 100.21894487 49.07200346 100.21894487 49.82421875 98.30078125 C51.43301841 77.24338131 44.4337199 57.29832608 31.43359375 40.8125 C18.08648145 25.38726588 -1.04766134 14.52406473 -21.60546875 12.77880859 C-41.79962158 11.89475011 -58.6251894 15.68029646 -75.69921875 26.75 C-79.53579537 28.83438798 -81.8128704 28.01301522 -86 27 C-88.63091646 24.78016424 -88.93215998 23.45549727 -89.4375 20.0625 C-88.88819423 16.21735963 -87.60042356 14.85207746 -85 12 C-61.5507284 -5.28823687 -27.24741673 -9.13078327 0 0 Z M27 414 C26.89893126 416.87264056 26.86030328 419.72073628 26.8671875 422.59375 C26.86623077 423.45560913 26.86527405 424.31746826 26.86428833 425.20544434 C26.8636065 427.03133212 26.86546096 428.85722231 26.86962891 430.68310547 C26.87497714 433.48801078 26.86968401 436.29275595 26.86328125 439.09765625 C26.86394203 440.86718786 26.86522319 442.63671936 26.8671875 444.40625 C26.86516327 445.25102905 26.86313904 446.09580811 26.86105347 446.96618652 C26.50075489 450.7918686 26.50075489 450.7918686 28 454 C30.41588973 454.09767385 32.80315384 454.12996678 35.21949768 454.12025452 C35.9839764 454.12110894 36.74845511 454.12196337 37.53609985 454.12284368 C40.11727018 454.12450079 42.6983766 454.11897337 45.27954102 454.11352539 C47.12202961 454.11324354 48.96451831 454.11340121 50.80700684 454.1139679 C55.82539237 454.11425596 60.84375421 454.10835775 65.86213422 454.10139394 C71.10054738 454.09516193 76.33896102 454.09455672 81.57737732 454.09336853 C91.50444491 454.09025476 101.43150156 454.08204076 111.35856432 454.07201904 C122.65704095 454.06085931 133.9555181 454.05534781 145.25399888 454.05032361 C168.502672 454.03985818 191.75133539 454.02225787 215 454 C217.71234966 448.57530067 216.55442253 439.58836118 215.31640625 433.80859375 C212.50102881 425.4091897 208.58515981 420.16420424 200.8177948 415.84434509 C193.06738505 412.09004267 185.80001699 412.18868811 177.4152832 412.30297852 C175.7796866 412.30303402 174.14408812 412.30045139 172.50849915 412.29545593 C168.10393642 412.28950666 163.70034637 412.32045528 159.29597497 412.35870481 C154.67873414 412.39268235 150.06148408 412.3930931 145.44413757 412.39744568 C137.70485702 412.40936729 129.96593547 412.44308404 122.22680664 412.49243164 C111.2977391 412.56207215 100.36883065 412.59122279 89.4395777 412.61283219 C80.95578856 412.63109938 72.47203248 412.66054339 63.98828125 412.69140625 C63.07687512 412.69457769 62.16546898 412.69774912 61.22644448 412.70101666 C56.00298779 412.71978267 50.77961335 412.7440908 45.55622673 412.77713203 C43.97150194 412.78648066 42.38676622 412.79414409 40.80202484 412.80004501 C38.64845862 412.8084503 36.49502539 412.8230237 34.34150696 412.83937073 C33.13387349 412.84624185 31.92624002 412.85311296 30.6820116 412.8601923 C28.08112458 412.69576276 28.08112458 412.69576276 27 414 Z " fill="#000000" transform="translate(126,23)"/>
<path d="M0 0 C3.76476026 3.47732046 6.57980734 6.85384406 7.4375 12 C6.74876715 16.13239709 5.27234448 17.53511495 1.9375 20 C-1.85062906 20.7102742 -3.40234422 20.43473673 -6.625 18.3125 C-8.29218598 16.73081074 -9.91611989 15.10260474 -11.5 13.4375 C-15.73486149 9.40921712 -20.05467697 7.45973307 -25.92578125 6.9453125 C-32.96188446 7.12539558 -38.09834406 10.3636459 -43.3359375 14.79296875 C-48.78614489 21.75986282 -48.55299158 29.47330015 -48.5 37.9375 C-48.51998047 39.06607422 -48.53996094 40.19464844 -48.56054688 41.35742188 C-48.55604185 49.10156612 -47.70379978 55.84134805 -42.44897461 61.84277344 C-35.09912725 68.9976737 -26.16639756 69.34703521 -16.41796875 69.49609375 C-13.0625 70 -13.0625 70 -10.64453125 71.81640625 C-8.33054037 75.01028502 -8.5135567 77.15739689 -9.0625 81 C-11.28113029 83.90717073 -12.58194929 84.83981643 -16.0625 86 C-28.65207549 87.05419956 -41.19983206 85.27532868 -51.0625 77 C-59.77484884 69.50332774 -64.32719398 60.07762307 -65.36328125 48.69580078 C-65.49959857 45.16708672 -65.52113311 41.65615025 -65.5 38.125 C-65.51998047 36.94808594 -65.53996094 35.77117187 -65.56054688 34.55859375 C-65.55315816 21.12590176 -62.31743836 10.56128892 -53.02734375 0.87890625 C-38.15040103 -13.4208006 -15.62511629 -13.37489728 0 0 Z " fill="#000000" transform="translate(243.0625,240)"/>
<path d="M0 0 C6.33268243 6.01940485 10.56338835 12.71839988 11.55859375 21.5390625 C11.58050781 22.63992187 11.60242188 23.74078125 11.625 24.875 C11.68494141 26.53402344 11.68494141 26.53402344 11.74609375 28.2265625 C11.1875 31.25 11.1875 31.25 8.88671875 33.65234375 C6.1875 35.25 6.1875 35.25 2.5625 35.1875 C-0.85511487 34.23816254 -1.74493732 33.95598855 -3.8125 31.25 C-4.62109375 28.54296875 -4.62109375 28.54296875 -5.25 25.4375 C-6.79203388 18.88187903 -8.44214079 14.93660174 -14.0625 10.9375 C-18.56408193 8.65311514 -22.93250852 7.59933526 -27.921875 8.7265625 C-32.98136349 10.45744014 -37.43784809 12.51027564 -39.93359375 17.484375 C-41.52278714 21.326381 -42.82477584 25.15071428 -43.8125 29.1875 C-44.8125 32.25 -44.8125 32.25 -46.5 34.25 C-49.92018008 35.72899679 -52.25704479 35.15502496 -55.8125 34.25 C-58.32941856 32.65595158 -58.7240995 31.52880158 -59.625 28.6875 C-60.13286259 19.37668576 -56.90640711 10.61803126 -51.28125 3.2421875 C-37.90021388 -11.33809242 -15.01237991 -12.6302502 0 0 Z " fill="#000000" transform="translate(439.8125,133.75)"/>
<path d="M0 0 C3.41458542 2.45916614 3.62763943 5.24333272 4.3125 9.25 C5.59744152 15.22863981 7.12806318 19.19165502 12 23 C16.85292989 25.78594123 21.44817496 26.94296265 27 26 C31.70920062 24.45642869 35.9097595 22.03160807 38.98046875 18.046875 C40.87436557 14.24456873 41.48836785 10.08172126 42.2265625 5.92578125 C43.01966831 2.92559815 43.52862735 1.79901391 46 0 C49.56317503 -1.08444457 51.30293543 -1.30100515 54.75 0.1875 C57.1819214 2.1465478 57.95445486 3.09515995 59 6 C58.88681965 17.23314943 55.18228293 25.55692585 47.8125 33.8125 C40.40149452 40.79436039 30.61854344 43.3477034 20.68359375 43.21484375 C10.65913449 42.41230334 2.61065838 37.98960941 -4.25 30.8125 C-10.80317216 22.98223326 -12.44564181 15.8934819 -12.43359375 5.78515625 C-12 3 -12 3 -10.66015625 1.18359375 C-6.98499152 -1.43658252 -4.20042188 -1.05010547 0 0 Z " fill="#000000" transform="translate(73,126)"/>
<path d="M0 0 C2.95973639 0.83820659 4.09609968 2.15909766 6 4.56640625 C6.53344727 7.87866211 6.53344727 7.87866211 6.56640625 11.78125 C6.57570412 12.82038292 6.57570412 12.82038292 6.58518982 13.88050842 C6.59227657 15.34211831 6.58913373 16.80380912 6.57641602 18.26538086 C6.56256035 20.49419805 6.59661125 22.71880373 6.63476562 24.94726562 C6.63571705 26.37109477 6.63385671 27.79492914 6.62890625 29.21875 C6.62963135 30.50773193 6.63035645 31.79671387 6.63110352 33.12475586 C5.84262718 37.42462079 4.39638852 38.89895591 1 41.56640625 C-2 42.19140625 -2 42.19140625 -5 41.56640625 C-7.875 39.56640625 -7.875 39.56640625 -10 36.56640625 C-10.40997788 33.75883618 -10.24237846 31.42647211 -10 28.56640625 C-11.22976562 28.61861328 -11.22976562 28.61861328 -12.484375 28.671875 C-13.56203125 28.69894531 -14.6396875 28.72601563 -15.75 28.75390625 C-17.35101563 28.80611328 -17.35101563 28.80611328 -18.984375 28.859375 C-22.34433237 28.53295427 -23.63608845 27.9303178 -26 25.56640625 C-27.17407634 21.96590547 -27.32759676 20.28711912 -25.75 16.81640625 C-24 14.56640625 -24 14.56640625 -21 12.56640625 C-18.30078125 12.37109375 -18.30078125 12.37109375 -15.3125 12.44140625 C-13.82169922 12.46847656 -13.82169922 12.46847656 -12.30078125 12.49609375 C-11.54152344 12.51929688 -10.78226563 12.5425 -10 12.56640625 C-10.12375 10.98859375 -10.12375 10.98859375 -10.25 9.37890625 C-10 5.56640625 -10 5.56640625 -8.5 2.62890625 C-5.46430603 0.12445872 -3.81628375 0.00745368 0 0 Z " fill="#000000" transform="translate(229,258.43359375)"/>
<path d="M0 0 C2.4375 1.5 2.4375 1.5 4 4 C4.56076157 9.00531626 4.69189226 10.97774476 1.83203125 15.203125 C0.84744361 16.24001677 -0.1606115 17.25498373 -1.1875 18.25 C-1.72342773 18.79358154 -2.25935547 19.33716309 -2.81152344 19.8972168 C-3.94510294 21.03621777 -5.08875947 22.16526829 -6.24169922 23.28466797 C-7.99583918 24.99594086 -9.70315082 26.74575459 -11.41015625 28.50390625 C-12.52088169 29.60934481 -13.63408648 30.71229891 -14.75 31.8125 C-15.2555542 32.33424805 -15.7611084 32.85599609 -16.28198242 33.39355469 C-19.16795184 36.1339466 -21.32047032 37.33982721 -25.234375 37.45703125 C-29 37 -29 37 -31.5 34.875 C-33.3440701 31.3405323 -33.84682469 29.92618718 -33 26 C-28.44182756 19.81995415 -22.61822981 14.4649693 -17.1875 9.0625 C-16.42501953 8.29615234 -15.66253906 7.52980469 -14.87695312 6.74023438 C-14.14798828 6.01255859 -13.41902344 5.28488281 -12.66796875 4.53515625 C-12.01078857 3.879104 -11.3536084 3.22305176 -10.67651367 2.54711914 C-7.31922808 -0.55104873 -4.46294766 -0.38473687 0 0 Z " fill="#000000" transform="translate(338,198)"/>
<path d="M0 0 C3.07056639 0.62094942 4.14971237 2.01732671 6.10546875 4.42578125 C6.93018975 8.71961469 6.70820265 13.0615864 6.66796875 17.42578125 C6.69181641 18.61429688 6.71566406 19.8028125 6.74023438 21.02734375 C6.73830078 22.16945313 6.73636719 23.3115625 6.734375 24.48828125 C6.7351001 25.53113281 6.7358252 26.57398438 6.73657227 27.6484375 C6.10546875 30.42578125 6.10546875 30.42578125 3.79272461 32.80078125 C1.10546875 34.42578125 1.10546875 34.42578125 -2.51953125 34.36328125 C-7.03738839 33.10832093 -7.03738839 33.10832093 -8.89453125 30.42578125 C-10.36863323 26.0034753 -10.11948954 21.68349708 -10.14453125 17.05078125 C-10.16515625 16.10460937 -10.18578125 15.1584375 -10.20703125 14.18359375 C-10.23550871 9.11460515 -10.23911576 5.5304986 -6.89453125 1.42578125 C-5.04421135 -0.42453865 -2.46981043 0.13437993 0 0 Z " fill="#000000" transform="translate(445.89453125,67.57421875)"/>
<path d="M0 0 C2.67431489 1.81163267 2.95920359 2.87761077 4 6 C4.22923808 9.45436744 4.18516136 12.91380817 4.1875 16.375 C4.19974609 17.32117188 4.21199219 18.26734375 4.22460938 19.2421875 C4.24318287 28.05840724 4.24318287 28.05840724 2 32 C-0.6597357 34.16719206 -2.08837596 33.99534863 -5.5625 33.8125 C-10.00121005 32.76335035 -10.00121005 32.76335035 -12 30 C-12.6495064 25.71796716 -12.46312334 21.38818556 -12.4375 17.0625 C-12.45748047 15.86947266 -12.47746094 14.67644531 -12.49804688 13.44726562 C-12.49740234 12.30064453 -12.49675781 11.15402344 -12.49609375 9.97265625 C-12.49794678 8.92343994 -12.4997998 7.87422363 -12.50170898 6.79321289 C-11.19689979 -0.47117736 -6.17638181 -0.68626465 0 0 Z " fill="#000000" transform="translate(72,68)"/>
<path d="M0 0 C2.375 1.1875 2.375 1.1875 4 3 C5.31951144 7.58770534 5.18365794 12.26657858 5.1875 17 C5.19974609 17.7940625 5.21199219 18.588125 5.22460938 19.40625 C5.23772408 24.65213117 4.97370655 28.80699272 1.3125 32.875 C-2.10144385 34.53583755 -4.38757223 33.91952707 -8 33 C-9.68774414 31.82617188 -9.68774414 31.82617188 -11 30 C-11.65168902 25.5299252 -11.46311084 21.01216351 -11.4375 16.5 C-11.4674707 14.62634766 -11.4674707 14.62634766 -11.49804688 12.71484375 C-11.49740234 11.51988281 -11.49675781 10.32492188 -11.49609375 9.09375 C-11.49794678 7.99740234 -11.4997998 6.90105469 -11.50170898 5.77148438 C-11 3 -11 3 -9.18774414 1.14257812 C-5.98134762 -0.53200459 -3.55891425 -0.38131224 0 0 Z " fill="#000000" transform="translate(391,68)"/>
<path d="M0 0 C2.18725586 1.14086914 2.18725586 1.14086914 4 3 C4.85713469 7.42767929 4.60212443 11.93663142 4.5625 16.4375 C4.58634766 17.67822266 4.61019531 18.91894531 4.63476562 20.19726562 C4.63283203 21.38900391 4.63089844 22.58074219 4.62890625 23.80859375 C4.62963135 24.89970459 4.63035645 25.99081543 4.63110352 27.11499023 C4 30 4 30 1.68725586 32.39086914 C-1 34 -1 34 -4.625 33.9375 C-9.22727273 32.65909091 -9.22727273 32.65909091 -11 30 C-12.29624299 25.7206457 -12.18391827 21.5591859 -12.1875 17.125 C-12.19974609 16.33480469 -12.21199219 15.54460937 -12.22460938 14.73046875 C-12.23610465 10.12469468 -11.96189144 6.26271429 -10 2 C-6.28986601 -0.47342266 -4.38939738 -0.38503486 0 0 Z " fill="#000000" transform="translate(128,68)"/>
<path d="M0 0 C2.60371733 2.03495544 3.8409855 3.23132988 4.51757812 6.50195312 C4.52208984 7.41912109 4.52660156 8.33628906 4.53125 9.28125 C4.53640625 10.28800781 4.5415625 11.29476562 4.546875 12.33203125 C4.53140625 13.37746094 4.5159375 14.42289063 4.5 15.5 C4.51546875 16.54542969 4.5309375 17.59085938 4.546875 18.66796875 C4.54171875 19.67472656 4.5365625 20.68148437 4.53125 21.71875 C4.52673828 22.63591797 4.52222656 23.55308594 4.51757812 24.49804688 C3.84061308 27.77047034 2.61208291 28.97149236 0 31 C-3.75349462 31.46918683 -6.03848453 31.53136381 -9.375 29.6875 C-13.11639976 25.80220025 -12.29592325 20.1787231 -12.375 15.125 C-12.41238281 14.22652344 -12.44976562 13.32804688 -12.48828125 12.40234375 C-12.54931113 7.81154091 -12.50909001 5.6854132 -9.69921875 1.90234375 C-6.17054913 -0.58457681 -4.23040595 -0.69224825 0 0 Z " fill="#000000" transform="translate(347,230)"/>
<path d="M0 0 C2.72235378 1.934304 3.75092091 3.30613681 4.875 6.4375 C5.0326804 9.66994816 4.51618058 11.11759076 3 14 C0.96276061 16.16516593 -1.2897176 17.97903405 -3.625 19.8125 C-4.21667969 20.31458984 -4.80835938 20.81667969 -5.41796875 21.33398438 C-10.07176022 25.02786853 -13.08645346 25.67511948 -19 25 C-21.5 23.4375 -21.5 23.4375 -23 21 C-23.5625 17.5625 -23.5625 17.5625 -23 14 C-20.80078125 11.578125 -20.80078125 11.578125 -18 9 C-17.12601562 8.18917969 -16.25203125 7.37835938 -15.3515625 6.54296875 C-14.45179688 5.76566406 -13.55203125 4.98835938 -12.625 4.1875 C-11.73039062 3.39730469 -10.83578125 2.60710937 -9.9140625 1.79296875 C-6.32221644 -0.41702769 -4.1486431 -0.46205267 0 0 Z " fill="#000000" transform="translate(397,403)"/>
<path d="M0 0 C2.85851009 2.29302222 4.88864284 5.02293831 7 8 C7.89525391 9.24330078 7.89525391 9.24330078 8.80859375 10.51171875 C11.47480068 14.53258047 12.96969136 17.04527778 13.125 21.9375 C12 25 12 25 10.375 26.9375 C6.81782113 28.5288695 4.86815826 28.72118205 1 28 C-1.85851009 25.70697778 -3.88864284 22.97706169 -6 20 C-6.59683594 19.17113281 -7.19367188 18.34226562 -7.80859375 17.48828125 C-10.47480068 13.46741953 -11.96969136 10.95472222 -12.125 6.0625 C-11 3 -11 3 -9.375 1.0625 C-5.81782113 -0.5288695 -3.86815826 -0.72118205 0 0 Z " fill="#000000" transform="translate(83,358)"/>
<path d="M0 0 C2.76262872 2.31704344 2.96966803 3.69917823 3.33203125 7.29296875 C2.92911033 11.79146237 1.71078083 13.33990749 -1.25 16.6875 C-2.03890625 17.59886719 -2.8278125 18.51023437 -3.640625 19.44921875 C-4.41921875 20.29097656 -5.1978125 21.13273437 -6 22 C-6.68707031 22.74765625 -7.37414062 23.4953125 -8.08203125 24.265625 C-10.97469239 26.8813919 -13.15690839 27.06742266 -17 27 C-19.9375 25 -19.9375 25 -22 22 C-22.62327419 17.59446366 -22.26317783 14.9086425 -19.734375 11.32421875 C-18.75700188 10.0978921 -17.76161513 8.88573624 -16.75 7.6875 C-16.01330078 6.7584082 -16.01330078 6.7584082 -15.26171875 5.81054688 C-10.59086424 0.07473753 -7.61960024 -1.93953461 0 0 Z " fill="#000000" transform="translate(429,371)"/>
<path d="M0 0 C4.13906674 1.37429951 5.81016243 5.30315782 7.73828125 8.96875 C8.51751953 10.73605469 8.51751953 10.73605469 9.3125 12.5390625 C10.11107422 14.29863281 10.11107422 14.29863281 10.92578125 16.09375 C12.13572414 20.11516019 11.95436636 22.60675629 11 26.6640625 C9.43098366 29.01758701 8.3266259 29.54047432 5.6875 30.5390625 C1.90956744 30.71478029 0.17197518 29.72362961 -3 27.6640625 C-4.69317879 25.2132469 -5.77444127 22.61046314 -6.875 19.8515625 C-7.18179688 19.15224609 -7.48859375 18.45292969 -7.8046875 17.73242188 C-9.54106282 13.58915129 -10.49451334 10.22828701 -10 5.6640625 C-7.47111865 0.81703991 -5.12607122 0.10011858 0 0 Z " fill="#000000" transform="translate(61,317.3359375)"/>
<path d="M0 0 C4.85940139 3.5428148 4.9149284 10.48810255 6 16 C6.15855469 16.73734375 6.31710938 17.4746875 6.48046875 18.234375 C7.20101665 22.06599439 6.9423189 24.60094192 5 28 C1.2794164 30.48038907 -0.59796571 30.46337203 -5 30 C-10.77495606 25.62341593 -10.95801549 18.75024747 -12 12 C-12.43979366 8.11317494 -12.59599952 5.10685625 -10.6875 1.5625 C-7.25345983 -1.61716683 -4.27314242 -1.0682856 0 0 Z " fill="#000000" transform="translate(52,275)"/>
<path d="M0 0 C2.625 2.0625 2.625 2.0625 4 5 C3.94244718 8.33806333 3.84832554 10.79196045 1.89453125 13.57421875 C-0.8774091 15.66031819 -3.94041559 16.35524639 -7.25 17.1875 C-7.89324219 17.36474609 -8.53648437 17.54199219 -9.19921875 17.72460938 C-14.25924453 19.0430668 -19.46637364 20.13346442 -24.375 17.9375 C-26.77859391 15.0716765 -26.87085587 12.68060775 -27 9 C-26.33984375 6.9140625 -26.33984375 6.9140625 -25 5 C-22.57421875 3.76953125 -22.57421875 3.76953125 -19.6875 2.8125 C-18.74261719 2.48894531 -17.79773438 2.16539063 -16.82421875 1.83203125 C-11.31482689 0.2089324 -5.73630288 -0.92934516 0 0 Z " fill="#000000" transform="translate(218,38)"/>
<path d="M0 0 C2.95560977 2.04663114 5.43240884 4.49477948 8 7 C9.13613089 7.9492349 10.28089456 8.88832245 11.4375 9.8125 C14.85185781 12.72719569 14.93507453 13.32910347 15.375 17.875 C15.32042351 21.20416588 15.13460445 21.83276417 12.9375 24.5625 C8.93015055 26.52354335 7.25506447 26.370275 3 25 C0.0676038 22.92004455 -2.43404857 20.50893029 -5 18 C-5.60714844 17.49984375 -6.21429688 16.9996875 -6.83984375 16.484375 C-9.06250028 14.58073506 -10.77864905 12.87689032 -11.5078125 9.98828125 C-11.69471022 6.61789239 -11.22219554 4.35551286 -9.4375 1.5 C-5.89383548 -0.68071663 -4.10900306 -0.75331723 0 0 Z " fill="#000000" transform="translate(111,393)"/>
<path d="M0 0 C3.45726974 1.14106932 4.98083023 2.16813005 7.171875 5.046875 C7.62564973 8.67707282 7.60887366 11.07005447 6.109375 14.421875 C3.26551765 16.80704568 0.84186233 16.73825398 -2.828125 17.046875 C-6.6171875 16.62890625 -6.6171875 16.62890625 -10.453125 15.859375 C-12.35964844 15.49779297 -12.35964844 15.49779297 -14.3046875 15.12890625 C-18.03643249 13.98290474 -20.11777526 12.83889253 -22.828125 10.046875 C-23.69418319 7.29270238 -23.43205384 4.85370618 -22.828125 2.046875 C-18.21719426 -5.63800957 -7.17489556 -1.40991397 0 0 Z " fill="#000000" transform="translate(303.828125,37.953125)"/>
<path d="M0 0 C4.67934783 1.29981884 4.67934783 1.29981884 6.375 3.9375 C7.84575548 8.52829746 6.86210686 12.4062764 5.6875 16.9375 C5.44483398 17.98550781 5.44483398 17.98550781 5.19726562 19.0546875 C4.07368361 23.51535017 2.65518206 26.56140619 -0.625 29.9375 C-4.09954134 31.40046477 -5.34580658 31.05025119 -8.875 29.625 C-11.625 27.9375 -11.625 27.9375 -12.625 25.9375 C-12.90203711 20.7511076 -12.22183575 16.27058521 -10.9375 11.25 C-10.78861328 10.59966797 -10.63972656 9.94933594 -10.48632812 9.27929688 C-8.9394425 3.3283369 -6.36885621 -0.10980787 0 0 Z " fill="#000000" transform="translate(462.625,289.0625)"/>
<path d="M0 0 C2.21130275 1.65888445 2.91710015 2.53205413 3.40405273 5.28076172 C3.43601124 8.14646203 3.4577862 11.00911382 3.4375 13.875 C3.4674707 15.36580078 3.4674707 15.36580078 3.49804688 16.88671875 C3.49506209 21.34599255 3.43772467 24.22171592 1.22265625 28.16015625 C-1.11651457 30.09644703 -2.01294782 30.66167947 -5 30.5625 C-5.66 30.56378906 -6.32 30.56507813 -7 30.56640625 C-10.11463859 29.68433087 -11.15117787 28.68993461 -13 26 C-13.56804577 22.6769705 -13.512335 19.42524708 -13.4375 16.0625 C-13.44458984 15.16853516 -13.45167969 14.27457031 -13.45898438 13.35351562 C-13.41159175 8.44291075 -13.21371967 4.96569841 -10 1 C-6.62152517 -1.56298091 -3.97719014 -1.10007387 0 0 Z " fill="#000000" transform="translate(471,245)"/>
<path d="M0 0 C9.31604856 -0.30173437 9.31604856 -0.30173437 13.14453125 3.15625 C15.09116757 5.7222706 15.15223861 6.96741974 15.01953125 10.21875 C14.14453125 13.15625 14.14453125 13.15625 12.7109375 14.78515625 C8.70473691 16.92545519 4.68674378 16.85116105 0.20703125 17.03125 C-0.68693359 17.09054688 -1.58089844 17.14984375 -2.50195312 17.2109375 C-7.49636289 17.44823685 -10.79590771 17.45310563 -14.85546875 14.15625 C-15.85546875 13.15625 -15.85546875 13.15625 -16.16796875 9.34375 C-16.1052801 6.42872772 -15.9358274 5.29251033 -14.41796875 2.71875 C-9.89178958 -0.04111535 -5.17618446 0.28323855 0 0 Z " fill="#000000" transform="translate(251.85546875,32.84375)"/>
<path d="M0 0 C2.83203629 4.24805443 2.3302592 7.88111269 2.3125 12.875 C2.32861328 13.77347656 2.34472656 14.67195313 2.36132812 15.59765625 C2.36496294 20.51919884 2.28756751 24.04851983 -1 28 C-4.09173752 29.54586876 -6.59429552 29.29359521 -10 29 C-12.1953125 27.6328125 -12.1953125 27.6328125 -14 25 C-14.59832517 21.51258609 -14.55775408 18.09271797 -14.5 14.5625 C-14.51546875 13.62083984 -14.5309375 12.67917969 -14.546875 11.70898438 C-14.52226699 7.35029023 -14.41949454 4.70478639 -12.15625 0.90234375 C-7.89063296 -2.86098143 -5.05888439 -1.83959433 0 0 Z " fill="#000000" transform="translate(52,231)"/>
<path d="M0 0 C2.97819304 0.09205324 4.02122686 0.31014179 6.625 1.9375 C8.70944548 5.32472391 8.46338827 7.42310836 8.125 11.375 C7.14013202 14.11851111 5.80693141 16.5911923 4.375 19.125 C4.02695312 19.78371094 3.67890625 20.44242187 3.3203125 21.12109375 C1.39415544 24.63811386 -0.27943987 27.46598005 -3.875 29.375 C-7.27185818 29.25581199 -9.81500615 28.95628695 -12.8125 27.3125 C-14.54786602 24.14800903 -14.31496416 20.86270888 -13.875 17.375 C-12.87486494 14.56738378 -11.49776865 12.07056488 -10 9.5 C-9.63519531 8.83742188 -9.27039063 8.17484375 -8.89453125 7.4921875 C-4.97598199 0.48154664 -4.97598199 0.48154664 0 0 Z " fill="#000000" transform="translate(446.875,331.625)"/>
</svg>
