<?xml version="1.0" encoding="UTF-8"?>
<svg version="1.1" xmlns="http://www.w3.org/2000/svg" width="512" height="512">
<path d="M0 0 C1.37493622 -0.00101212 1.37493622 -0.00101212 2.77764893 -0.00204468 C54.83340214 0.05885455 99.58913196 18.455211 137.25 54.25 C138.19746094 55.11818359 138.19746094 55.11818359 139.1640625 56.00390625 C171.53169547 86.60742652 188.8216854 133.45911152 190.53515625 177.19921875 C191.5481282 221.50950605 177.20770778 259.48214502 153.86328125 296.4921875 C149.59748186 303.25746935 145.45648814 310.097248 141.3125 316.9375 C140.59559752 318.11925668 139.87863921 319.30097949 139.16162109 320.48266602 C137.81225633 322.70814424 136.46460852 324.93466464 135.11889648 327.16235352 C133.92151022 329.14058265 132.71840961 331.11537104 131.50805664 333.08569336 C115.85678124 358.70929311 118.13382107 383.75169041 124.125 411.8125 C124.59145599 414.06281745 125.05630912 416.31346777 125.51953125 418.56445312 C127.59818448 428.70613742 127.59818448 428.70613742 129.847229 438.8107605 C130.03186707 439.60273834 130.21650513 440.39471619 130.40673828 441.21069336 C130.57231232 441.90086044 130.73788635 442.59102753 130.90847778 443.30210876 C131.47434649 446.52957284 131.11046219 449.11545915 130.25 452.25 C127.98276379 455.307859 126.81186323 456.1622925 123.00750065 456.75615788 C121.71242305 456.7589648 120.41734545 456.76177172 119.08302307 456.7646637 C118.36034443 456.77160922 117.6376658 456.77855475 116.8930878 456.78571075 C114.47081062 456.80401141 112.04950946 456.79370856 109.62719727 456.78344727 C107.89089219 456.79050424 106.15459327 456.79924833 104.41830444 456.80955505 C99.70131333 456.83208417 94.9846572 456.82910107 90.26763272 456.82023358 C86.33112012 456.81512847 82.39467073 456.82241241 78.45816463 456.82970566 C69.17216764 456.84671598 59.88633493 456.84312756 50.6003418 456.82641602 C41.01740132 456.80949318 31.43491629 456.82532889 21.85202557 456.8576389 C13.62684746 456.88432154 5.40181124 456.89161439 -2.8234058 456.88312382 C-7.73701748 456.87819075 -12.65035506 456.88043065 -17.56393242 456.90091133 C-22.18437858 456.91924764 -26.80416886 456.91333505 -31.42457962 456.88871193 C-33.12050231 456.88369749 -34.81647479 456.88721025 -36.51235771 456.89986038 C-38.82767473 456.91576501 -41.14082505 456.90086811 -43.45603943 456.87818909 C-44.75149405 456.87760278 -46.04694868 456.87701647 -47.38165951 456.87641239 C-51.61118886 456.08984417 -53.07567115 454.5416038 -55.75 451.25 C-56.63479614 449.27770996 -56.63479614 449.27770996 -57.00439453 447.36523438 C-57.15449982 446.64098267 -57.3046051 445.91673096 -57.45925903 445.17053223 C-57.59903168 444.40269409 -57.73880432 443.63485596 -57.8828125 442.84375 C-58.1278804 441.64026917 -58.1278804 441.64026917 -58.37789917 440.41247559 C-58.89499239 437.86152787 -59.38663034 435.30658867 -59.875 432.75 C-60.37380725 430.19427551 -60.87817615 427.63996647 -61.39352417 425.08752441 C-61.71229277 423.50356277 -62.02117235 421.91756867 -62.31863403 420.32946777 C-63.15435002 416.12039492 -64.05784813 412.71076324 -66.75 409.25 C-69.82110592 407.33701538 -72.19931906 406.99266141 -75.78710938 406.96289062 C-76.78915405 406.94947632 -77.79119873 406.93606201 -78.8236084 406.92224121 C-79.90275513 406.91696411 -80.98190186 406.91168701 -82.09375 406.90625 C-83.21382446 406.8916272 -84.33389893 406.87700439 -85.48791504 406.86193848 C-89.07524018 406.8154308 -92.6625117 406.78127505 -96.25 406.75 C-100.94811204 406.70855357 -105.64585459 406.65466574 -110.34375 406.59375 C-111.40670288 406.5884729 -112.46965576 406.5831958 -113.56481934 406.57775879 C-132.14794117 406.3350946 -147.31745412 401.29080067 -161 388.4375 C-171.32498317 377.63373737 -175.05907697 364.27033768 -177.6875 349.9375 C-177.95805218 348.57863875 -178.23054952 347.2201635 -178.50488281 345.86206055 C-179.87162886 338.95773081 -180.90139468 332.22530352 -181.33203125 325.1953125 C-181.86245673 312.33848514 -181.86245673 312.33848514 -188.39941406 301.93164062 C-194.84691234 298.01083807 -201.67824457 295.69197441 -208.82470703 293.38647461 C-213.85745012 291.43125686 -217.25441918 288.43968372 -220.2734375 284.01953125 C-220.69496094 283.05080078 -220.69496094 283.05080078 -221.125 282.0625 C-221.42148438 281.40894531 -221.71796875 280.75539063 -222.0234375 280.08203125 C-223.33158171 276.7835386 -223.93349674 274.09271498 -224 270.5625 C-224.02578125 269.75425781 -224.0515625 268.94601562 -224.078125 268.11328125 C-223.32932331 261.57909508 -220.28713134 256.0216411 -216.75 250.5625 C-216.33919189 249.91603516 -215.92838379 249.26957031 -215.50512695 248.60351562 C-209.90032103 239.83402452 -204.16285727 231.14677281 -198.43945312 222.4543457 C-198.03664627 221.84210648 -197.63383942 221.22986725 -197.21882629 220.59907532 C-196.11437486 218.92099307 -195.00876543 217.24367315 -193.90307617 215.56640625 C-193.19256104 214.47199219 -192.4820459 213.37757813 -191.75 212.25 C-191.30182922 211.63586746 -190.85365845 211.02173492 -190.39190674 210.38899231 C-186.75871859 205.18028907 -186.0459712 201.22908824 -186.1484375 194.94921875 C-186.14043121 194.07336624 -186.13242493 193.19751373 -186.12417603 192.29512024 C-186.10126524 189.50876968 -186.11046612 186.72388665 -186.125 183.9375 C-186.14925398 166.8672432 -185.07902964 150.36116019 -180.5625 133.8125 C-180.3552832 133.04502441 -180.14806641 132.27754883 -179.93457031 131.48681641 C-167.05038556 85.81912856 -135.91137855 46.62839985 -94.75 23.25 C-64.89970576 6.83125846 -33.878618 0.02234987 0 0 Z M-38.75 20.25 C-39.52037598 20.41628906 -40.29075195 20.58257812 -41.08447266 20.75390625 C-82.74481563 29.89328679 -120.10073404 56.00126661 -143.23242188 91.80712891 C-150.61488905 103.69081079 -156.72154292 116.06969935 -161.25 129.3125 C-161.55196289 130.18334229 -161.85392578 131.05418457 -162.16503906 131.95141602 C-168.21917779 150.88339718 -169.31237019 169.76190539 -169.1652832 189.47802734 C-169.0604719 210.38874094 -169.0604719 210.38874094 -174.75 218.25 C-175.18755615 218.94480469 -175.6251123 219.63960937 -176.07592773 220.35546875 C-177.41941626 222.48177542 -178.82371363 224.55347174 -180.25 226.625 C-181.30708389 228.18545717 -182.36303046 229.74668526 -183.41796875 231.30859375 C-183.96243652 232.11280762 -184.5069043 232.91702148 -185.06787109 233.74560547 C-188.51179465 238.87300284 -191.86851002 244.05783233 -195.21337891 249.25024414 C-197.48227646 252.77234819 -199.74904181 256.28412953 -202.16015625 259.7109375 C-205.82766515 264.9844523 -205.82766515 264.9844523 -207 271.1875 C-204.66438236 276.90976322 -199.67763564 278.93801146 -194.2421875 281.30859375 C-192.99589864 281.8647974 -191.74981073 282.4214515 -190.50390625 282.97851562 C-188.55999066 283.83780405 -186.61422224 284.69217752 -184.66455078 285.53833008 C-182.76758429 286.36518233 -180.87975556 287.21054933 -178.9921875 288.05859375 C-177.30391846 288.79807251 -177.30391846 288.79807251 -175.58154297 289.55249023 C-171.57845256 291.95234259 -170.16579117 294.65215861 -168.99855042 299.13774109 C-168.82186325 300.19789932 -168.64517609 301.25805756 -168.46313477 302.3503418 C-168.25604385 303.55897385 -168.04895294 304.7676059 -167.83558655 306.01286316 C-167.62300705 307.3118605 -167.41042755 308.61085785 -167.19140625 309.94921875 C-166.95987494 311.30838018 -166.72710129 312.6673305 -166.4931488 314.02607727 C-165.63031985 319.05290262 -164.7892252 324.08331194 -163.94897461 329.11395264 C-163.23831445 333.36462462 -162.51851127 337.6135531 -161.78669548 341.86063576 C-161.44998335 343.83639018 -161.12649619 345.81438406 -160.80335999 347.79240417 C-158.35900621 362.02759044 -154.06402995 372.66613509 -142.375 381.625 C-132.09541861 388.71777015 -121.82230469 389.38183526 -109.6328125 389.4609375 C-107.22785772 389.48900141 -104.82290989 389.51766584 -102.41796875 389.546875 C-98.64371909 389.588129 -94.86959983 389.62503767 -91.09521484 389.65136719 C-87.44081205 389.67904121 -83.78698998 389.72490504 -80.1328125 389.7734375 C-79.01174103 389.77669037 -77.89066956 389.77994324 -76.73562622 389.78329468 C-68.65653055 389.90942392 -61.78463741 390.87902867 -55.5 396.4375 C-54.87609375 396.96730469 -54.2521875 397.49710937 -53.609375 398.04296875 C-44.30841498 409.08297381 -43.59265567 426.66109631 -40.75 439.25 C9.74 439.25 60.23 439.25 112.25 439.25 C109.28 424.4 106.31 409.55 103.25 394.25 C98.05000306 357.85002145 111.89576126 331.06315942 130.609375 301.08984375 C146.14866007 276.83569843 146.14866007 276.83569843 159.25 251.25 C159.5505127 250.57453125 159.85102539 249.8990625 160.16064453 249.203125 C178.0118173 208.42170686 177.10838725 162.87889603 161.5 121.625 C153.75628247 103.24121345 143.78775724 86.92843962 130.16796875 72.3203125 C128.58738505 70.61418346 127.12526362 68.8871701 125.6875 67.0625 C122.49917161 63.38365955 119.00085715 60.34416134 115.25 57.25 C114.75854492 56.84088379 114.26708984 56.43176758 113.76074219 56.01025391 C85.20683447 32.37675003 48.89908017 17.26783621 11.54296875 17.046875 C10.7438356 17.03986069 9.94470245 17.03284637 9.12135315 17.02561951 C6.56001066 17.00822966 3.99889933 17.00176834 1.4375 17 C0.56250854 16.99932526 -0.31248291 16.99865051 -1.21398926 16.99795532 C-13.95942663 17.01358977 -26.28174816 17.37423522 -38.75 20.25 Z " fill="#000000" transform="translate(272.75,27.75)"/>
<path d="M0 0 C1.82146822 1.59777914 3.39798888 3.17702182 5 5 C8.37674225 3.47929621 11.03309197 1.47171865 13.9375 -0.8125 C21.55080694 -6.41801381 30.45423891 -10.4596739 40 -11 C41.09828125 -11.07541016 41.09828125 -11.07541016 42.21875 -11.15234375 C54.88931135 -11.65355266 66.94177388 -7.42510147 76.6875 0.625 C86.89394709 10.27243674 92.05437079 22.52736795 92.5 36.5 C91.6778562 63.99929264 69.39005155 80.83476438 51.41796875 98.87719727 C48.87039281 101.43592838 46.33475153 104.00616944 43.80138206 106.57895565 C41.81761827 108.58902357 39.82486642 110.59000229 37.82970047 112.58874702 C36.44196795 113.98359025 35.06387895 115.38800726 33.68612671 116.79270935 C25.8642228 124.5880492 18.14797014 131.05460623 6.75 131.25 C-3.95581777 131.13595667 -11.28801249 126.01620039 -18.7265625 118.56396484 C-19.26400085 118.03324371 -19.80143921 117.50252258 -20.35516357 116.95571899 C-22.11706383 115.21269827 -23.87143796 113.46234402 -25.625 111.7109375 C-26.85744093 110.48493242 -28.09002802 109.25907427 -29.32275391 108.03335571 C-31.90167923 105.4663788 -34.47646435 102.89532869 -37.04882812 100.32177734 C-40.32681787 97.04358478 -43.61832927 93.7793491 -46.91360474 90.51854515 C-49.46344936 87.99106851 -52.00401953 85.45442042 -54.54217529 82.91521072 C-55.75086458 81.70886353 -56.96275648 80.5057155 -58.17803955 79.3060112 C-70.66758811 66.96164394 -79.16799147 55.03317938 -79.3125 36.9375 C-79.32443742 23.00653448 -75.28266576 12.77977605 -65.7109375 2.5546875 C-47.56275726 -14.9021335 -19.62597439 -15.47964177 0 0 Z M-55 16 C-61.70863583 25.16095229 -62.87063562 32.71904992 -62 44 C-59.05187257 55.98786755 -47.42808912 64.72218062 -39.01171875 73.12109375 C-37.860516 74.27297135 -36.70946163 75.42499725 -35.55854797 76.5771637 C-33.16231445 78.97486213 -30.76430495 81.37076582 -28.36499023 83.76538086 C-25.28700684 86.83762882 -22.21358714 89.9143972 -19.14145184 92.99249172 C-16.77300658 95.36454233 -14.40219507 97.7342163 -12.03064919 100.10316658 C-10.89558292 101.2375655 -9.76125975 102.37270845 -8.62769127 103.50860405 C-7.05066471 105.08816085 -5.47048488 106.66449282 -3.8894043 108.23999023 C-2.99118454 109.1374144 -2.09296478 110.03483856 -1.16752625 110.9594574 C1.80348977 113.75641765 2.61738643 113.96719823 6.80175781 114.32592773 C14.60598388 113.31206248 19.93951104 106.13741926 25.171875 100.78515625 C26.42359887 99.5311997 27.67673647 98.27865292 28.93121338 97.02745056 C31.55268505 94.40423899 34.15996649 91.76793498 36.75732422 89.12084961 C40.06950472 85.74646615 43.40948824 82.40139019 46.76002121 79.06513309 C49.35041115 76.48119054 51.9279656 73.88474564 54.5016861 71.2842083 C55.72792365 70.04716963 56.95739421 68.81332633 58.19026947 67.58290291 C67.09567648 58.67005799 74.94502967 50.14261307 75.3125 36.875 C75.19422255 27.99236355 71.98915093 21.17121733 65.921875 14.75390625 C59.15996758 8.58297854 51.60401167 5.48753283 42.390625 5.75390625 C29.78319456 7.05172997 22.58131429 14.1441188 14.1015625 22.92578125 C11.50712471 25.48646241 10.49374408 25.92100095 6.875 26.5 C1.30889136 25.78179243 -1.11156265 22.84499112 -5 19 C-13.09133949 11.22596794 -20.31681092 6.52089417 -31.6875 5.75 C-40.92251468 5.94094955 -48.56815042 9.39630711 -55 16 Z " fill="#000000" transform="translate(268,102)"/>
<path d="M0 0 C1.57381682 0.81175815 3.13534778 1.64754814 4.6875 2.5 C13.04772037 6.80526319 20.6145779 6.68890932 29.49609375 3.97265625 C31.79816051 3.07840567 33.72995146 2.06360754 35.8125 0.75 C39 -1 39 -1 42.1875 -1 C45.562953 0.20016107 47.0024164 1.00362459 49 4 C50.12825416 10.35925073 50.12825416 10.35925073 47.84765625 13.67578125 C39.09484937 21.95777701 26.84487194 24.35482515 15.21875 24.2109375 C5.44458609 23.57039763 -5.04315979 20.58750961 -11.75 13.02734375 C-13.67044958 9.91261459 -13.44630037 7.57040293 -13 4 C-9.23486836 -0.93362077 -5.83826847 -1.4861047 0 0 Z " fill="#000000" transform="translate(135,227)"/>
</svg>
