<?xml version="1.0" encoding="UTF-8"?>
<svg version="1.1" xmlns="http://www.w3.org/2000/svg" width="512" height="512">
<path d="M0 0 C1.08051097 -0.00467997 2.16102194 -0.00935994 3.27427566 -0.01418173 C6.88934589 -0.02613318 10.50403716 -0.01667365 14.11911011 -0.00723267 C16.71298443 -0.01129824 19.30685701 -0.01664003 21.90072632 -0.02316284 C28.21078663 -0.03648792 34.52073977 -0.0336282 40.83080424 -0.02492492 C45.95884542 -0.01814514 51.0868566 -0.01723292 56.21490097 -0.02049637 C57.31035596 -0.02118592 57.31035596 -0.02118592 58.42794134 -0.0218894 C59.91158996 -0.02284858 61.39523856 -0.02382122 62.87888716 -0.02480717 C76.78338506 -0.03335716 90.68782357 -0.02353245 104.59231173 -0.00740607 C116.52282371 0.0060024 128.45324814 0.00366392 140.38375854 -0.01016235 C154.24217129 -0.02621538 168.10053204 -0.03253915 181.95895278 -0.02332556 C183.43648075 -0.02236992 184.91400873 -0.02142681 186.39153671 -0.02049637 C187.11849335 -0.02003354 187.84544998 -0.01957072 188.59443561 -0.01909386 C193.71729843 -0.01650356 198.84012828 -0.02087572 203.96298599 -0.02793503 C210.85603132 -0.03722503 217.74890828 -0.03061529 224.64193726 -0.01325226 C227.17478027 -0.0092782 229.70763718 -0.01043709 232.2404747 -0.01704025 C235.69143067 -0.02520905 239.14185177 -0.01499012 242.59277344 0 C244.10458039 -0.01003825 244.10458039 -0.01003825 245.64692891 -0.02027929 C252.60307781 0.03853655 256.44905333 1.40805477 261.42141724 6.38572693 C262.31304565 7.27106361 262.31304565 7.27106361 263.22268677 8.17428589 C264.17519318 9.13522156 264.17519318 9.13522156 265.14694214 10.11557007 C265.82881592 10.7955455 266.5106897 11.47552094 267.21322632 12.17610168 C269.45873815 14.41791806 271.69698452 16.66683698 273.93502808 18.91610718 C275.49453872 20.47681016 277.05441947 22.03714342 278.61465454 23.59712219 C281.87917656 26.86320682 285.14031507 30.13261995 288.39889526 33.40463257 C292.58267867 37.60544063 296.77305002 41.79960053 300.96573257 45.9915247 C304.18468185 49.21074538 307.40102229 52.43256165 310.61647797 55.65527153 C312.16130105 57.20328317 313.70673619 58.75068426 315.25278473 60.297472 C317.40753669 62.45438353 319.55896848 64.61455035 321.70944214 66.77572632 C322.35254333 67.41837433 322.99564453 68.06102234 323.65823364 68.72314453 C328.43603692 73.53589185 329.29467174 75.27040106 329.28965759 81.99938965 C329.29093923 83.03100812 329.29093923 83.03100812 329.29224676 84.08346736 C329.29390013 86.39896325 329.28838253 88.71438745 329.28292847 91.02987671 C329.28264654 92.68532306 329.28280444 94.34076954 329.28337097 95.99621582 C329.28365873 100.50009686 329.27776555 105.00395145 329.27079701 109.50782633 C329.26455981 114.21104709 329.26395939 118.91426841 329.26277161 123.61749268 C329.25965938 132.52808931 329.25144744 141.43867373 329.24142212 150.34926498 C329.23025763 160.49180112 329.22474968 170.63433784 329.21972668 180.7768786 C329.20926474 201.64490954 329.19166739 222.51292946 329.16940308 243.38095093 C330.81755005 243.35738525 330.81755005 243.35738525 332.49899292 243.33334351 C336.61773197 243.27859893 340.73643957 243.24444065 344.85543823 243.21615601 C346.63023303 243.20117 348.40499144 243.18077411 350.17965698 243.15463257 C373.96550928 242.81330492 373.96550928 242.81330492 383.16940308 250.38095093 C390.37959837 257.49791094 394.18117056 264.52262605 394.26705933 274.80673218 C394.26046445 276.43566723 394.24861595 278.06458826 394.23190308 279.69345093 C394.22739136 280.52940796 394.22287964 281.36536499 394.2182312 282.22665405 C394.20650855 284.27811742 394.18857511 286.32954366 394.16940308 288.38095093 C395.35758133 288.37095818 395.35758133 288.37095818 396.56976318 288.36076355 C404.07186322 288.30039874 411.57384379 288.25484854 419.07612419 288.22551441 C422.93219322 288.20992594 426.78805986 288.18881418 430.64401245 288.15463257 C434.37229498 288.12179336 438.10038409 288.10404677 441.8288002 288.0963192 C443.24402024 288.09081937 444.6592309 288.0800808 446.07436752 288.06376076 C459.74590186 287.91251004 469.06985804 289.67892958 479.07955933 299.19735718 C487.88190985 308.44823512 488.76241155 318.15016938 488.6869812 330.49423218 C488.69241155 331.99671097 488.6995393 333.49918443 488.70822144 335.00164795 C488.72634954 339.05545153 488.71943119 343.10884476 488.70670509 347.16265488 C488.69652254 351.42073356 488.70598528 355.67877895 488.71224976 359.93685913 C488.71951095 367.0852789 488.70997875 374.23353293 488.69088745 381.38192749 C488.66912159 389.62656468 488.67617405 397.87080609 488.69819307 406.11543369 C488.7163908 413.21555481 488.7188841 420.31555732 488.7084384 427.41569424 C488.70222742 431.64690569 488.70130138 435.87793159 488.71458435 440.10913086 C488.72620621 444.08860266 488.71800279 448.06756808 488.69500732 452.04698563 C488.68975382 453.50053698 488.69117594 454.95413154 488.70005798 456.40766525 C488.77016144 469.05347409 486.63601521 477.83244313 477.81002808 487.11141968 C469.56737298 494.19571348 460.8427104 496.53778148 450.23075962 496.51237869 C449.03449871 496.51545764 449.03449871 496.51545764 447.81407091 496.51859879 C445.13119438 496.52427099 442.44836915 496.52281128 439.76548767 496.52139282 C437.82679178 496.52397631 435.88809642 496.52698943 433.9494018 496.53039622 C428.61353987 496.53847103 423.27769139 496.54025606 417.94182408 496.54099369 C412.19054689 496.54284335 406.43927669 496.55039014 400.68800354 496.55712891 C388.10978645 496.57071505 375.53157255 496.57673707 362.95334935 496.58113956 C355.10326714 496.58390089 347.25318616 496.58813798 339.40310478 496.59264374 C317.67821982 496.60483559 295.95333618 496.61517123 274.22844791 496.61851883 C272.82380922 496.61874046 271.41917052 496.61896225 270.01453182 496.61918418 C268.60649919 496.61940482 267.19846657 496.6196253 265.79043394 496.61984563 C262.96566649 496.62028818 260.14089904 496.6207353 257.31613159 496.6211853 C256.61575451 496.62129469 255.91537743 496.62140408 255.1937768 496.62151679 C232.4732656 496.62514913 209.75278626 496.64107685 187.03228727 496.66437567 C163.01354662 496.68896078 138.99482498 496.70268428 114.9760713 496.70388675 C101.88171007 496.70480461 88.7873906 496.71058515 75.69304085 496.72870636 C64.5463597 496.7440777 53.39973321 496.7492453 42.25304348 496.74096826 C36.56325055 496.73705154 30.8735678 496.73804112 25.1837883 496.7520256 C19.9783695 496.764703 14.77314436 496.76362149 9.56772607 496.75143489 C7.68150755 496.74946719 5.79527559 496.75260543 3.90907598 496.76127926 C1.35044269 496.77230331 -1.20749881 496.76493247 -3.76611233 496.75288773 C-4.87138888 496.76428052 -4.87138888 496.76428052 -5.99899426 496.77590346 C-11.99450455 496.71473321 -15.79708176 495.27477356 -20.17413664 491.19840091 C-22.32273716 487.54387653 -22.38516174 484.42214555 -22.33396149 480.30175114 C-22.33977525 479.4890485 -22.34558901 478.67634586 -22.35157895 477.83901587 C-22.36622625 475.10416524 -22.35227181 472.37020545 -22.33853149 469.63536072 C-22.34313854 467.65953754 -22.34949014 465.68371779 -22.35744047 463.70790523 C-22.37418392 458.26933899 -22.36586459 452.83105245 -22.3534956 447.39248502 C-22.34446788 441.53076146 -22.35840354 435.66908695 -22.36941528 429.80737305 C-22.3872298 418.32038461 -22.38334736 406.83350055 -22.37176472 395.34650797 C-22.36274176 386.01266972 -22.36139556 376.67885777 -22.36585999 367.34501457 C-22.36616553 366.68216891 -22.36647107 366.01932325 -22.36678587 365.33639136 C-22.36803119 362.64576759 -22.36930479 359.95514385 -22.37062492 357.26452012 C-22.38286525 332.01610528 -22.37176048 306.76774742 -22.35023733 281.51934137 C-22.33125662 259.08279983 -22.33295107 236.6463491 -22.3520813 214.20980835 C-22.37349614 189.00949664 -22.38199503 163.8092353 -22.36963224 138.60891575 C-22.36834935 135.92284486 -22.36709799 133.23677396 -22.36585999 130.55070305 C-22.36554368 129.88931101 -22.36522737 129.22791897 -22.36490147 128.54648474 C-22.36034983 118.55475508 -22.36570074 108.56307481 -22.3757782 98.57135201 C-22.38698429 87.21054798 -22.38398745 75.84985453 -22.36265522 64.48906321 C-22.35212584 58.68988516 -22.34805519 52.89089164 -22.36125183 47.09171486 C-22.37314243 41.78630842 -22.3666681 36.4812581 -22.34534162 31.17588412 C-22.3408614 29.25333209 -22.3431735 27.33075018 -22.35284477 25.40821726 C-22.36496042 22.80037745 -22.35258321 20.19376688 -22.33396149 17.58599186 C-22.34332615 16.83470171 -22.35269082 16.08341157 -22.36233926 15.30935505 C-22.28924945 10.20894803 -21.07571499 7.29034506 -17.83059692 3.38095093 C-12.0393645 -0.10761689 -6.63720941 -0.04426636 0 0 Z M-4.83059692 18.38095093 C-4.83059692 170.18095093 -4.83059692 321.98095093 -4.83059692 478.38095093 C60.17940308 478.38095093 125.18940308 478.38095093 192.16940308 478.38095093 C191.17940308 475.08095093 190.18940308 471.78095093 189.16940308 468.38095093 C188.78908634 464.80456543 188.78908634 464.80456543 188.78172302 461.47518921 C188.77181839 460.19694275 188.76191376 458.91869629 188.75170898 457.60171509 C188.75594544 456.21823021 188.76050313 454.8347463 188.76535034 453.45126343 C188.75963716 451.96849049 188.75266926 450.48572194 188.74455261 449.00296021 C188.72671264 445.00294428 188.72777193 441.00314881 188.733495 437.00310516 C188.73659954 433.65330765 188.73048054 430.30355172 188.72445625 426.95376015 C188.71044334 419.0472933 188.71194588 411.14093459 188.72335815 403.23446655 C188.73484215 395.09890332 188.72075169 386.96366963 188.69396168 378.8281498 C188.67175941 371.82145695 188.6651773 364.81486721 188.67103809 357.80814171 C188.67439735 353.63280714 188.67206135 349.45768387 188.65478706 345.28237915 C188.63924696 341.35545559 188.64335091 337.42901819 188.66209221 333.50211334 C188.66575835 332.06790505 188.6627277 330.63366016 188.65220642 329.19948578 C188.57102745 317.21123545 190.62251964 307.23240036 199.16940308 298.38095093 C209.37625099 289.74137332 220.41775712 288.92676246 233.36471558 288.86923218 C234.80775445 288.85235193 236.25077892 288.83419729 237.69378662 288.81483459 C241.45833838 288.76769085 245.22283173 288.73765279 248.98757935 288.71139526 C252.84257539 288.68140799 256.69737079 288.63494101 260.55221558 288.5899353 C268.09117771 288.50430861 275.6301551 288.43678478 283.16940308 288.38095093 C283.186604 287.75083603 283.20380493 287.12072113 283.2215271 286.47151184 C283.306983 283.58537128 283.40993025 280.70010225 283.51315308 277.81454468 C283.55327515 276.32779236 283.55327515 276.32779236 283.59420776 274.81100464 C283.94414024 265.65000066 285.66391775 258.83892675 292.39205933 252.18173218 C298.30893858 247.31191336 303.76681245 245.49597682 311.16940308 243.38095093 C311.16940308 191.90095093 311.16940308 140.42095093 311.16940308 87.38095093 C279.48940308 86.88595093 279.48940308 86.88595093 247.16940308 86.38095093 C231.09838015 70.30992801 242.52448252 41.10603562 242.16940308 18.38095093 C160.65940308 18.38095093 79.14940308 18.38095093 -4.83059692 18.38095093 Z M260.16940308 31.38095093 C260.16940308 44.25095093 260.16940308 57.12095093 260.16940308 70.38095093 C272.70940308 70.38095093 285.24940308 70.38095093 298.16940308 70.38095093 C293.95038288 65.4587607 289.72420616 60.66130382 285.29440308 55.94345093 C284.33896606 54.92541382 284.33896606 54.92541382 283.36422729 53.8868103 C278.41577016 48.6434439 273.38286516 43.48839552 268.29440308 38.38095093 C267.59847046 37.68042603 266.90253784 36.97990112 266.18551636 36.25814819 C265.5434021 35.6180481 264.90128784 34.977948 264.23971558 34.31845093 C263.67011108 33.74997437 263.10050659 33.1814978 262.51364136 32.59579468 C261.34772701 31.26920145 261.34772701 31.26920145 260.16940308 31.38095093 Z M302.91940308 266.88095093 C297.99984161 273.90889588 300.16940308 278.0888716 300.16940308 288.38095093 C325.24940308 288.38095093 350.32940308 288.38095093 376.16940308 288.38095093 C377.57513007 272.49726354 377.57513007 272.49726354 372.16940308 264.38095093 C366.74314437 260.15998869 360.0717524 260.94869114 353.50924683 260.98251343 C352.28661636 260.97964325 351.0639859 260.97677307 349.80430603 260.97381592 C347.22474707 260.97177807 344.64517255 260.97728832 342.06564331 260.98983765 C338.11745697 261.00590797 334.17029222 260.98997122 330.22213745 260.97079468 C327.71367165 260.97277689 325.20520649 260.9766201 322.69674683 260.98251343 C321.51644394 260.97644073 320.33614105 260.97036804 319.12007141 260.96411133 C317.46794395 260.97829605 317.46794395 260.97829605 315.78244019 260.99276733 C314.33398964 260.9963475 314.33398964 260.9963475 312.85627747 261 C308.43310278 261.62712738 305.86088992 263.61263221 302.91940308 266.88095093 Z M208.16940308 314.38095093 C204.01347827 320.82263437 204.98618557 329.40719242 204.98190308 336.75595093 C204.96965698 337.85423218 204.95741089 338.95251343 204.9447937 340.08407593 C204.92914137 348.78676933 205.32851431 356.43502916 211.16940308 363.38095093 C216.88875414 367.43767312 221.13314339 367.93315329 228.04049683 367.77157593 C228.96282608 367.76591614 229.88515533 367.76025635 230.83543396 367.75442505 C233.75980166 367.7321673 236.68291039 367.68199139 239.60690308 367.63095093 C241.59842175 367.6108722 243.58995976 367.59262384 245.58151245 367.57626343 C250.44462224 367.53233733 255.30679976 367.46338405 260.16940308 367.38095093 C260.29057495 366.75446655 260.41174683 366.12798218 260.53659058 365.48251343 C260.78795776 364.25661499 260.78795776 364.25661499 261.04440308 363.00595093 C261.20682495 362.19384155 261.36924683 361.38173218 261.53659058 360.54501343 C262.16940308 358.38095093 262.16940308 358.38095093 264.16940308 356.38095093 C267.2496122 355.55956183 269.68972881 355.32517485 272.85690308 355.69345093 C275.16940308 357.38095093 275.16940308 357.38095093 278.16940308 367.38095093 C318.09940308 367.38095093 358.02940308 367.38095093 399.16940308 367.38095093 C399.49940308 364.74095093 399.82940308 362.10095093 400.16940308 359.38095093 C401.82759046 356.67548731 402.9862603 356.43669003 406.04440308 355.50595093 C409.75783307 355.35741373 411.22836661 356.19618098 414.16940308 358.38095093 C416.21638721 360.42793507 415.86986001 364.68506334 416.16940308 367.38095093 C422.00428621 367.50512176 427.83838991 367.59555916 433.67428589 367.65560913 C435.65684416 367.68065776 437.63931097 367.71470677 439.62155151 367.75814819 C442.48148234 367.81922712 445.34018599 367.84725722 448.20065308 367.86923218 C449.51676575 367.90794182 449.51676575 367.90794182 450.85946655 367.94743347 C457.13240784 367.95025282 461.3389144 366.43884047 466.16940308 362.38095093 C471.95613427 355.1104425 471.38516832 348.12483013 471.40963745 339.21908569 C471.41932433 337.08579227 471.45036414 334.95347094 471.48190308 332.82040405 C471.48843617 331.44866493 471.49368544 330.07691897 471.49752808 328.70516968 C471.51154663 326.85024902 471.51154663 326.85024902 471.52584839 324.95785522 C470.91581067 318.83616853 468.49135585 313.82638806 464.16940308 309.38095093 C458.90288269 306.01142776 454.45884868 305.95547262 448.41488647 306 C446.94959322 305.99298004 446.94959322 305.99298004 445.45469809 305.98581827 C442.18433107 305.97386085 438.91438251 305.98332863 435.64401245 305.99276733 C433.2982102 305.98870198 430.95240986 305.9833603 428.60661316 305.97683716 C422.23688632 305.96315359 415.86730516 305.9684666 409.49757576 305.97797441 C403.50929642 305.9847962 397.52103046 305.979591 391.5327515 305.97519283 C378.94969582 305.96664141 366.36670575 305.97646916 353.78366083 305.99259393 C342.99049649 306.0059969 332.19742895 306.00366874 321.40426636 305.98983765 C308.86575747 305.97377744 296.32730606 305.96746536 283.78878832 305.97667444 C277.15324572 305.98141576 270.51775707 305.98196955 263.88221741 305.97206497 C257.64415532 305.96340424 251.40627618 305.96940112 245.16823387 305.98674774 C242.87769563 305.99071732 240.58714202 305.98957051 238.29660988 305.98295975 C235.17217135 305.97477306 232.04832066 305.98503155 228.92391968 306 C228.0155528 305.99330783 227.10718593 305.98661567 226.17129278 305.97972071 C218.25937818 306.05333925 213.47261055 308.34118686 208.16940308 314.38095093 Z M206.16940308 381.38095093 C206.07666518 392.35987748 206.0056187 403.33871062 205.96215439 414.3179493 C205.94129216 419.41623916 205.91299925 424.51426076 205.86764526 429.61239624 C205.82413912 434.53369656 205.8002557 439.45473908 205.7898941 444.37621689 C205.78251132 446.25249158 205.76809435 448.12875239 205.74648285 450.00491714 C205.71738531 452.63594141 205.7134497 455.26590456 205.71530151 457.89706421 C205.70092041 458.67030533 205.68653931 459.44354645 205.67172241 460.24021912 C205.71748866 466.26162455 207.63270198 469.76982339 211.76705933 474.02548218 C215.62862346 477.10443598 218.32170327 478.50292908 223.23313427 478.515172 C224.47826582 478.52185877 224.47826582 478.52185877 225.74855155 478.52868062 C227.11632687 478.52840408 227.11632687 478.52840408 228.51173401 478.52812195 C229.96494032 478.53363698 229.96494032 478.53363698 231.44750434 478.53926343 C234.70856899 478.55031642 237.96960178 478.55414685 241.23068237 478.55795288 C243.56294354 478.56421631 245.8952037 478.570863 248.22746277 478.5778656 C254.57472381 478.59528641 260.92197732 478.60583031 267.26925635 478.61407113 C271.23345366 478.61921897 275.19764861 478.6252948 279.16184425 478.63158226 C290.13967313 478.64845314 301.11749992 478.66308793 312.09533978 478.670331 C314.9438394 478.67224086 317.79233903 478.6741612 320.64083862 478.67611694 C321.34880995 478.67660068 322.05678128 478.67708442 322.78620628 478.67758282 C334.25227895 478.68588133 345.71824724 478.7112153 357.18427434 478.74369762 C368.95913926 478.77678258 380.73395115 478.79478108 392.50886279 478.79797524 C399.11885444 478.80032762 405.72868112 478.80931277 412.33862877 478.83443642 C418.55779249 478.85769248 424.77668231 478.86196009 430.99587822 478.85167503 C433.2775234 478.85117897 435.55918194 478.8575201 437.84078598 478.87123108 C440.95823727 478.88891552 444.07470199 478.88186014 447.19215393 478.86869812 C448.09285053 478.87966737 448.99354714 478.89063661 449.92153758 478.90193826 C456.57199311 478.83425346 462.13035115 477.32321776 467.00924683 472.59970093 C467.37147339 472.03251343 467.73369995 471.46532593 468.10690308 470.88095093 C468.48717651 470.31376343 468.86744995 469.74657593 469.25924683 469.16220093 C471.51256826 464.75226714 471.30610942 460.25055874 471.28292847 455.39950562 C471.28314751 454.19894028 471.28314751 454.19894028 471.28337097 452.97412109 C471.28267537 450.33366162 471.27489948 447.69327305 471.26705933 445.05282593 C471.26519389 443.22008299 471.26377058 441.38733956 471.26277161 439.55459595 C471.2589563 434.73445251 471.24913441 429.91433928 471.23806763 425.09420776 C471.22783232 420.17416797 471.22326944 415.2541233 471.2182312 410.33407593 C471.20751127 400.683021 471.19044666 391.03198848 471.16940308 381.38095093 C470.49693039 381.59157669 469.8244577 381.80220245 469.13160706 382.01921082 C462.53350294 383.96950898 456.55106389 384.84305601 449.68893433 384.89266968 C448.75006882 384.91062088 447.81120331 384.92857208 446.84388733 384.94706726 C443.88993625 385.00059008 440.93614113 385.0348773 437.98190308 385.06845093 C435.96039725 385.10167539 433.93891187 385.13616966 431.91744995 385.17196655 C427.00154808 385.25628209 422.08568777 385.3233668 417.16940308 385.38095093 C417.02244995 386.8446814 417.02244995 386.8446814 416.87252808 388.33798218 C416.72299683 389.61028687 416.57346558 390.88259155 416.41940308 392.19345093 C416.28018433 393.45802124 416.14096558 394.72259155 415.99752808 396.02548218 C415.16940308 399.38095093 415.16940308 399.38095093 413.27877808 401.31454468 C409.79642362 403.07506832 406.62501296 402.57765497 402.85690308 402.06845093 C402.30002808 401.84157593 401.74315308 401.61470093 401.16940308 401.38095093 C399.4697299 396.28193141 399.58163437 390.73995776 399.16940308 385.38095093 C359.23940308 385.38095093 319.30940308 385.38095093 278.16940308 385.38095093 C277.83940308 389.01095093 277.50940308 392.64095093 277.16940308 396.38095093 C275.07849399 400.92640547 275.07849399 400.92640547 272.16940308 402.38095093 C268.48811255 402.54100704 265.7825397 402.28423508 262.16940308 401.38095093 C261.50940308 396.10095093 260.84940308 390.82095093 260.16940308 385.38095093 C258.30191406 385.35907715 258.30191406 385.35907715 256.396698 385.33676147 C251.73154467 385.27833215 247.06685173 385.20110567 242.40206909 385.11849976 C240.39172903 385.08545881 238.38130083 385.05736363 236.37081909 385.03451538 C233.46345827 385.00058294 230.55689016 384.94825216 227.64987183 384.89266968 C226.76607346 384.88627975 225.88227509 384.87988983 224.97169495 384.87330627 C218.35842772 384.72110313 212.47139915 383.35480467 206.16940308 381.38095093 Z " fill="#000000" transform="translate(22.830596923828125,7.619049072265625)"/>
<path d="M0 0 C14.73046294 11.87043207 23.58919274 28.01835401 26.29931641 46.72021484 C28.19894 66.62827008 23.70993888 83.97819623 11.42431641 100.03271484 C-1.03942249 114.7886356 -16.84182895 123.14593022 -36.00537109 125.46240234 C-54.48068242 126.75137755 -73.11300943 122.22293013 -87.32617188 109.88330078 C-101.96811432 96.63735473 -111.59729648 80.18602554 -112.86083984 60.18505859 C-113.47775589 40.25598818 -106.74089399 20.64444127 -93.08740234 5.95068359 C-68.07440577 -17.42480093 -27.64777294 -20.8052865 0 0 Z M-82.48583984 21.66162109 C-91.50270249 33.07683084 -96.26420345 47.16881983 -94.70068359 61.72021484 C-92.03139231 76.63964646 -85.80365959 89.36948781 -73.39208984 98.39990234 C-60.25452715 106.84998267 -45.92583801 109.29845521 -30.66064453 106.32250977 C-18.00175827 103.4328485 -7.12749449 96.17293119 0.04931641 85.40771484 C7.45898409 72.95137146 11.22112653 59.05842091 8.11962891 44.59130859 C4.06998417 30.41755202 -3.78394158 18.48368217 -16.73193359 10.95849609 C-39.51138384 -0.68496053 -64.74003868 2.36257694 -82.48583984 21.66162109 Z " fill="#000000" transform="translate(153.70068359375,91.27978515625)"/>
<path d="M0 0 C1.37319004 -0.01169993 1.37319004 -0.01169993 2.77412128 -0.02363622 C5.84290576 -0.0435863 8.91045429 -0.02777958 11.97924805 -0.01205444 C14.17874883 -0.0188292 16.37824393 -0.02773153 18.57772827 -0.03860474 C24.55292512 -0.06142121 30.52769086 -0.05255175 36.50289536 -0.03670931 C42.75194218 -0.02406263 49.00095175 -0.035787 55.25 -0.04364014 C66.41725923 -0.05332337 77.58436001 -0.0377716 88.75158131 -0.01234345 C98.87541906 0.00999525 108.99897016 0.00611506 119.12280273 -0.01693726 C130.88123594 -0.0436991 142.63952951 -0.05365272 154.39799404 -0.03887594 C160.62165142 -0.03107517 166.84511136 -0.03005723 173.0687561 -0.04655838 C178.9195283 -0.06098694 184.76975841 -0.05101025 190.62047195 -0.0220871 C192.76951827 -0.01546775 194.9186101 -0.01738836 197.0676384 -0.02840042 C199.99802225 -0.04203349 202.9266614 -0.02496667 205.85693359 0 C207.13733001 -0.01673041 207.13733001 -0.01673041 208.44359303 -0.03379881 C212.78926204 0.03818475 214.43596338 0.2474511 217.96980286 3.02762794 C219.9284668 5.63491821 219.9284668 5.63491821 220.33862305 7.98648071 C220.22389648 8.73671509 220.10916992 9.48694946 219.9909668 10.25991821 C219.85368164 11.39300415 219.85368164 11.39300415 219.71362305 12.54898071 C218.6229556 15.44657482 217.65496703 16.12060592 214.9284668 17.63491821 C211.87645121 17.928959 209.02923819 18.04831268 205.97718811 18.02932739 C204.60527971 18.03846405 204.60527971 18.03846405 203.20565599 18.04778528 C200.1340489 18.06446434 197.06285414 18.05963245 193.99121094 18.05484009 C191.79186063 18.06217754 189.59251418 18.07076281 187.39317322 18.08050537 C181.41389224 18.1027635 175.4347489 18.10564992 169.45543218 18.10375786 C164.46763645 18.10363836 159.47987011 18.11219391 154.49208254 18.12053537 C142.05439655 18.14088597 129.61677195 18.14191383 117.17907809 18.13472825 C106.377047 18.1291521 95.57525303 18.149981 84.77327735 18.18308872 C73.68204062 18.21681923 62.59090097 18.23152015 51.49960989 18.22737169 C45.27256125 18.22530078 39.04574877 18.23083648 32.81874275 18.25526428 C26.96391594 18.27747253 21.10958378 18.27570264 15.25475502 18.25533676 C13.10408395 18.2519163 10.95337996 18.25706008 8.80275345 18.27132034 C5.87016334 18.28942618 2.93926684 18.27682804 0.00672913 18.25637817 C-0.84755061 18.26889602 -1.70183034 18.28141387 -2.58199733 18.29431105 C-6.8780492 18.22993133 -8.57963369 18.0117768 -12.0998621 15.31482697 C-14.0715332 12.63491821 -14.0715332 12.63491821 -14.6965332 9.13491821 C-13.1776843 0.62936438 -7.38170258 -0.09645367 0 0 Z " fill="#000000" transform="translate(59.071533203125,254.36508178710938)"/>
<path d="M0 0 C6.71929971 3.9895842 11.1889688 9.84462264 13.25390625 17.34765625 C14.60961431 24.07734219 13.06539044 29.25803758 10.6875 35.5 C11.265 35.7475 11.8425 35.995 12.4375 36.25 C20.02970082 40.46788935 24.32260561 48.42996492 26.6875 56.5 C27.85357957 61.66518465 28.68146156 66.37008238 26.375 71.3125 C24.6875 73.5 24.6875 73.5 21.6875 75.5 C18.92396545 75.75396729 18.92396545 75.75396729 15.53540039 75.75878906 C13.63311424 75.76824554 13.63311424 75.76824554 11.69239807 75.77789307 C10.30664939 75.77431289 8.92090197 75.77021083 7.53515625 75.765625 C6.11412998 75.76697239 4.69310416 75.76891355 3.27207947 75.77142334 C0.29372774 75.77437207 -2.68450401 75.77008575 -5.6628418 75.76074219 C-9.47723177 75.74935807 -13.29133997 75.75590195 -17.10571957 75.76788712 C-20.04055394 75.7751214 -22.97532176 75.77281042 -25.91015816 75.76763153 C-27.31635128 75.76629883 -28.72255047 75.76792945 -30.1287365 75.77259064 C-32.09615841 75.77768018 -34.06360155 75.76854501 -36.03100586 75.75878906 C-37.15002792 75.75719788 -38.26904999 75.75560669 -39.42198181 75.75396729 C-42.31346374 75.49991532 -43.92477331 75.11440483 -46.3125 73.5 C-49.46302944 68.77420583 -48.83581472 64.03123788 -48.3125 58.5 C-46.00110164 48.16099056 -39.88641336 40.61488831 -32.3125 33.5 C-32.63605469 32.78457031 -32.95960937 32.06914062 -33.29296875 31.33203125 C-35.61830529 24.87276309 -35.05208372 17.51901845 -32.2734375 11.2734375 C-26.00222428 -0.30026495 -12.31382669 -5.31137979 0 0 Z M-15.1875 17.625 C-16.85913625 20.41106042 -16.77626624 22.31988862 -16.3125 25.5 C-14.79355194 27.59764165 -14.79355194 27.59764165 -12.3125 28.5 C-9.18569901 28.50674926 -9.18569901 28.50674926 -6.3125 27.5 C-3.97953749 24.67282787 -3.97953749 24.67282787 -4.5625 21.4375 C-5.0718244 18.400541 -5.0718244 18.400541 -7.3125 16.5 C-10.41597254 16.16984335 -12.47031176 15.99468706 -15.1875 17.625 Z M-26.3125 53.6875 C-28.4090873 56.06064098 -28.4090873 56.06064098 -28.3125 57.5 C-16.7625 57.5 -5.2125 57.5 6.6875 57.5 C4.8760907 52.58123872 4.8760907 52.58123872 1.3125 49.75 C0.72726563 49.34265625 0.14203125 48.9353125 -0.4609375 48.515625 C-9.30065605 43.66683423 -19.93153564 46.24901626 -26.3125 53.6875 Z " fill="#000000" transform="translate(121.3125,103.5)"/>
<path d="M0 0 C1.16928543 -0.00563965 2.33857086 -0.0112793 3.54328918 -0.01708984 C5.46192024 -0.01101715 5.46192024 -0.01101715 7.41931152 -0.00482178 C8.78285407 -0.00753247 10.14639516 -0.01109384 11.50993347 -0.01544189 C15.21029692 -0.02455892 18.91054883 -0.02102449 22.61091423 -0.01468372 C26.48345109 -0.00962018 30.35597839 -0.01431616 34.22851562 -0.01745605 C40.73174758 -0.02109466 47.23493412 -0.01629936 53.73815918 -0.0067749 C61.25674089 0.00410946 68.77521412 0.00058381 76.2937932 -0.01042771 C82.74909408 -0.01950358 89.2043623 -0.0207844 95.65966749 -0.01555037 C99.51513923 -0.01243232 103.37055998 -0.01201681 107.22602844 -0.01862335 C110.85069163 -0.02440055 114.47521497 -0.02039313 118.09986305 -0.00883484 C120.06475762 -0.00492868 122.02966401 -0.01087074 123.99455261 -0.01708984 C125.74848076 -0.00863037 125.74848076 -0.00863037 127.5378418 0 C129.06206882 0.00113108 129.06206882 0.00113108 130.61708832 0.002285 C133.34886577 0.26155476 134.96704782 0.79047797 137.2689209 2.25396729 C139.5710158 5.47690014 139.74402744 8.37393053 139.2689209 12.25396729 C137.46898315 14.9538739 136.1851479 16.79585378 133.2689209 18.25396729 C131.44316172 18.35594861 129.61366894 18.39345219 127.78507996 18.40113831 C126.03744354 18.41187126 126.03744354 18.41187126 124.25450134 18.42282104 C122.32744102 18.4268544 122.32744102 18.4268544 120.3614502 18.43096924 C118.9998253 18.43723318 117.63820211 18.44387992 116.27658081 18.45088196 C112.57194217 18.46829787 108.86731645 18.47884529 105.16264701 18.48708749 C102.84861575 18.49223635 100.5345885 18.49831213 98.22056007 18.50459862 C90.98198993 18.52365227 83.74343 18.53788309 76.5048396 18.54621059 C68.14630531 18.55598498 59.7880357 18.58230883 51.4295947 18.62271148 C44.97092865 18.65286082 38.51233853 18.66767832 32.05360347 18.6709916 C28.19517425 18.67334343 24.33702773 18.68232072 20.47867393 18.70745277 C16.84820237 18.7307182 13.21819995 18.73497325 9.58767319 18.72469139 C7.6217167 18.72395927 5.65578412 18.7430613 3.68992615 18.76275635 C2.51637573 18.75581253 1.34282532 18.74886871 0.13371277 18.74171448 C-0.88411443 18.74410283 -1.90194162 18.74649118 -2.95061207 18.74895191 C-6.48133382 18.12040535 -8.16236805 16.70402518 -10.7310791 14.25396729 C-12.1210199 11.47408569 -11.91596115 9.33533468 -11.7310791 6.25396729 C-10.87764864 3.69367591 -10.29116892 2.61006227 -8.01114655 1.16046524 C-5.20636662 0.04535469 -3.01868063 0.00224006 0 0 Z " fill="#000000" transform="translate(56.7310791015625,365.74603271484375)"/>
<path d="M0 0 C1.13418365 -0.00426498 2.26836731 -0.00852997 3.43692017 -0.01292419 C4.67703354 -0.01247101 5.91714691 -0.01201782 7.19483948 -0.0115509 C8.50412415 -0.01490952 9.81340881 -0.01826813 11.16236877 -0.02172852 C14.75120082 -0.03055776 18.34000903 -0.03290616 21.92885089 -0.0335443 C24.17153404 -0.03425533 26.41421113 -0.03639062 28.65689278 -0.03904152 C36.48220835 -0.04829082 44.3075069 -0.05237686 52.13282776 -0.05158997 C59.4253046 -0.05098902 66.7177075 -0.06154511 74.01016563 -0.07733363 C80.27354576 -0.09041058 86.53690173 -0.09577381 92.80029541 -0.09513456 C96.54011228 -0.09487965 100.27986341 -0.097727 104.01966667 -0.10831261 C108.1900882 -0.11979511 112.36034402 -0.11524583 116.53077698 -0.10920715 C118.38791069 -0.11763641 118.38791069 -0.11763641 120.28256226 -0.12623596 C121.41956573 -0.12204147 122.55656921 -0.11784698 123.72802734 -0.11352539 C124.71375953 -0.11407016 125.69949171 -0.11461493 126.71509457 -0.1151762 C130.58251985 0.2396961 133.43104165 1.17160975 136.24000549 3.88371277 C137.82353208 6.88407893 137.83849841 8.77727065 137.42750549 12.13371277 C135.16279961 16.76606571 135.16279961 16.76606571 132.42750549 18.13371277 C130.57416674 18.2357891 128.71713946 18.27320314 126.86100769 18.28088379 C125.67764328 18.28803909 124.49427887 18.2951944 123.27505493 18.30256653 C121.31758583 18.30659988 121.31758583 18.30659988 119.3205719 18.31071472 C117.93762033 18.31697854 116.55467044 18.32362527 115.17172241 18.33062744 C111.40930143 18.34804287 107.64689316 18.35859034 103.88444185 18.36683297 C101.53490636 18.37198123 99.18537483 18.37805699 96.83584213 18.3843441 C89.48781713 18.40339638 82.13980219 18.4176283 74.79175723 18.42595607 C66.30360369 18.43573433 57.81571052 18.46206881 49.32764876 18.50245696 C42.77048538 18.53258931 36.21339677 18.54742213 29.65616548 18.55073708 C25.73796633 18.55309058 21.82004534 18.56208965 17.90192032 18.58719826 C14.21646188 18.61043442 10.53146561 18.61473057 6.84595299 18.60443687 C4.84759957 18.60370343 2.84926986 18.62282532 0.85101318 18.64250183 C-0.33799088 18.63555801 -1.52699493 18.6286142 -2.75202942 18.62145996 C-3.7855271 18.62384831 -4.81902477 18.62623667 -5.88384056 18.6286974 C-9.27514785 18.00435339 -10.43042549 16.77487491 -12.57249451 14.13371277 C-13.99911669 11.2804684 -13.88283318 9.29916728 -13.57249451 6.13371277 C-10.70938353 1.53228441 -10.70938353 1.53228441 -7.78015041 0.50535107 C-5.15338065 0.06315886 -2.66499461 0.00453249 0 0 Z " fill="#000000" transform="translate(58.57249450683594,309.8662872314453)"/>
<path d="M0 0 C1.38339925 -0.00350277 2.76679448 -0.00916312 4.150177 -0.01681519 C7.90029812 -0.03104956 11.64968482 -0.01401653 15.39973569 0.00946999 C19.32564586 0.02959122 23.25152592 0.02369884 27.17747498 0.0213623 C33.76899313 0.02141586 40.36022444 0.04116217 46.95166016 0.07324219 C54.57200363 0.11014955 62.19197159 0.11891548 69.81239277 0.11194468 C77.14498372 0.10563982 84.47744594 0.11639261 91.81001091 0.13591003 C94.92994967 0.14408412 98.04982263 0.14679358 101.16977119 0.1452179 C104.84297212 0.14433902 108.51581612 0.15855544 112.18892288 0.18444443 C114.18002317 0.19502371 116.17118443 0.19093359 118.16230774 0.18643188 C119.93931061 0.20345657 119.93931061 0.20345657 121.75221252 0.2208252 C123.29661436 0.22641827 123.29661436 0.22641827 124.87221622 0.23212433 C127.94979104 0.67202332 129.31980572 1.48678657 131.55249023 3.61523438 C132.30249023 5.70117188 132.30249023 5.70117188 132.55249023 7.99023438 C132.65561523 8.74046875 132.75874023 9.49070312 132.86499023 10.26367188 C132.41043663 13.68418775 130.94574002 15.17657126 128.55249023 17.61523438 C125.83818817 18.24444008 125.83818817 18.24444008 122.66955566 18.25015259 C121.46661362 18.26425171 120.26367157 18.27835083 119.02427673 18.2928772 C117.04954124 18.27769547 117.04954124 18.27769547 115.03491211 18.26220703 C113.63195155 18.26898355 112.22899988 18.27788689 110.82606506 18.28875732 C107.01808177 18.31155394 103.21077568 18.30271341 99.40278053 18.2868619 C95.41811928 18.27420452 91.43351607 18.28594254 87.44885254 18.29379272 C80.75721829 18.30288981 74.06585994 18.29090001 67.37426758 18.26708984 C59.63737169 18.2398782 51.90113458 18.24869234 44.16425467 18.27622187 C37.52207089 18.29891044 30.88008546 18.30211434 24.23787546 18.28902853 C20.27052925 18.28123252 16.30349271 18.28019621 12.33616638 18.29671097 C8.6061818 18.31115313 4.87704664 18.30114021 1.14715385 18.27223969 C-0.8749843 18.26247244 -2.89719428 18.27733131 -4.91929626 18.2928772 C-6.12223831 18.27877808 -7.32518036 18.26467896 -8.5645752 18.25015259 C-9.61022392 18.24826746 -10.65587265 18.24638233 -11.7332077 18.24444008 C-14.44750977 17.61523438 -14.44750977 17.61523438 -16.78003693 15.29430199 C-18.99111697 11.74184057 -19.10892286 9.73069365 -18.44750977 5.61523438 C-14.08424421 -1.28565768 -7.48586969 -0.07671721 0 0 Z " fill="#000000" transform="translate(63.447509765625,421.384765625)"/>
<path d="M0 0 C1.26802963 -0.00856522 1.26802963 -0.00856522 2.56167603 -0.01730347 C3.49105484 -0.01842133 4.42043365 -0.01953918 5.37797546 -0.02069092 C6.35534668 -0.02565582 7.3327179 -0.03062073 8.33970642 -0.03573608 C11.58383378 -0.05038097 14.82791223 -0.05716378 18.07206726 -0.06268311 C20.32167564 -0.06843289 22.571284 -0.07419064 24.82089233 -0.07995605 C29.54288461 -0.09047284 34.26485983 -0.09631099 38.98686218 -0.09979248 C45.03982637 -0.10527689 51.09256556 -0.1293011 57.14545918 -0.15776443 C61.79427754 -0.17638175 66.44304165 -0.18159595 71.09189415 -0.18312836 C73.32343462 -0.18615774 75.55497407 -0.19419584 77.78647804 -0.20731354 C80.90829737 -0.22435389 84.02956609 -0.22249847 87.15141296 -0.21600342 C88.53637215 -0.22982559 88.53637215 -0.22982559 89.9493103 -0.243927 C94.75733678 -0.21256575 98.08245186 -0.04630435 101.95878601 3.14044189 C103.53776654 6.29840296 103.77806772 9.74714825 102.95878601 13.14044189 C100.93741984 15.87888848 99.30834863 17.84033173 95.88435364 18.60174561 C93.28009463 18.77806637 90.71729527 18.79298243 88.10722351 18.75567627 C87.11966064 18.76122528 86.13209778 18.76677429 85.11460876 18.77249146 C81.85383921 18.7842914 78.59445815 18.76000794 75.33378601 18.73419189 C73.06604577 18.73248083 70.79830355 18.73254643 68.53056335 18.73431396 C63.77923139 18.73266051 59.02837112 18.71395711 54.27714539 18.68243408 C48.18720178 18.64275687 42.09787608 18.63838879 36.00782776 18.64589691 C31.32550904 18.64896664 26.64332921 18.63684589 21.96104431 18.61976624 C19.71556978 18.61273556 17.4700795 18.60961178 15.22459412 18.61045837 C12.08622294 18.60866043 8.94859172 18.58727799 5.81034851 18.56036377 C4.88240479 18.56329437 3.95446106 18.56622498 2.99839783 18.56924438 C-1.81018207 18.50562748 -5.16503984 18.32367822 -9.04121399 15.14044189 C-10.63738142 11.94810704 -10.55587513 8.60582693 -10.04121399 5.14044189 C-7.08846569 1.30186911 -4.74298399 0.01915727 0 0 Z " fill="#000000" transform="translate(204.0412139892578,137.85955810546875)"/>
<path d="M0 0 C0.99731644 -0.0071553 1.99463287 -0.01431061 3.02217102 -0.02168274 C6.31537833 -0.0385769 9.60722577 -0.01916194 12.90039062 0.00219727 C15.1905529 0.00136864 17.48071513 -0.0010905 19.77087402 -0.00511169 C24.56927402 -0.00797021 29.36720738 0.0067374 34.16552734 0.03417969 C40.3160989 0.06826192 46.46583596 0.06224441 52.61644745 0.04351711 C57.34510248 0.03294844 62.07356334 0.04188387 66.80220032 0.05690193 C69.07000655 0.06208514 71.33783304 0.06160028 73.6056366 0.05535698 C76.775295 0.04990661 79.94375893 0.07027553 83.11328125 0.09765625 C84.05057571 0.09113037 84.98787018 0.08460449 85.9535675 0.07788086 C90.17962927 0.13995405 92.46890431 0.26980886 96.13879395 2.52577209 C98.33400729 4.93558498 98.71276176 5.91494201 98.61914062 9.13110352 C98.43792282 12.37170423 98.19990126 13.43350264 96.24414062 16.13110352 C93.14911923 18.2534039 90.67035201 18.75621589 87.00906372 18.76481628 C85.77683578 18.77121376 85.77683578 18.77121376 84.51971436 18.77774048 C83.62198303 18.77728729 82.72425171 18.77683411 81.79931641 18.77636719 C80.37693161 18.78140511 80.37693161 18.78140511 78.92581177 18.7865448 C75.7845123 18.79606004 72.64326611 18.79799822 69.50195312 18.79907227 C67.32103452 18.80228451 65.14011614 18.80564856 62.959198 18.80915833 C58.38441468 18.81515108 53.80965025 18.81699808 49.23486328 18.81640625 C43.37142592 18.81630463 37.50810966 18.82995566 31.644701 18.84717846 C27.13914432 18.85829458 22.63361694 18.86032557 18.12804794 18.85979652 C15.9662929 18.86097727 13.80453712 18.86540433 11.64279556 18.87312889 C8.61936197 18.88292056 5.5961917 18.88005387 2.57275391 18.87402344 C1.23222961 18.8824527 1.23222961 18.8824527 -0.13537598 18.89105225 C-5.41132223 18.86429704 -9.70795835 18.71233895 -13.75585938 14.94360352 C-15.47897966 11.58805348 -15.46544027 9.35092986 -14.94335938 5.63110352 C-10.7520404 -0.25760588 -6.67158384 -0.0832241 0 0 Z " fill="#000000" transform="translate(208.943359375,198.368896484375)"/>
<path d="M0 0 C1.40892517 -0.00361794 1.40892517 -0.00361794 2.84631348 -0.00730896 C4.83003974 -0.00633049 6.8137933 0.0070632 8.79736328 0.03198242 C11.83330059 0.06628817 14.86632687 0.05264269 17.90234375 0.03320312 C19.83074155 0.0401017 21.75913185 0.04977419 23.6875 0.0625 C24.59487915 0.05754013 25.5022583 0.05258026 26.43713379 0.04747009 C32.71475626 0.16474854 32.71475626 0.16474854 35.9140625 2.52563477 C37.55421384 4.93852817 37.88345241 6.23063062 37.84375 9.12890625 C37.8540625 9.88171875 37.864375 10.63453125 37.875 11.41015625 C37.10062454 14.64431258 36.02750648 15.63616 33.34375 17.62890625 C30.21416225 18.24345007 27.12293838 18.21319617 23.94140625 18.1953125 C23.02669052 18.20151108 22.11197479 18.20770966 21.16954041 18.21409607 C19.23714257 18.22119233 17.30468357 18.21802359 15.37231445 18.20532227 C12.41958718 18.19146882 9.47003712 18.22551369 6.51757812 18.26367188 C4.63802006 18.26462323 2.75845804 18.26276339 0.87890625 18.2578125 C-0.44160988 18.27769981 -0.44160988 18.27769981 -1.7888031 18.29798889 C-6.2048262 18.23111161 -8.09645719 18.05331645 -11.71704102 15.30834961 C-13.65625 12.62890625 -13.65625 12.62890625 -14.21875 9.12890625 C-12.79349285 0.26063956 -7.76933001 -0.1135219 0 0 Z " fill="#000000" transform="translate(207.65625,77.37109375)"/>
</svg>
