<?xml version="1.0" encoding="UTF-8"?>
<svg version="1.1" xmlns="http://www.w3.org/2000/svg" width="512" height="512">
<path d="M0 0 C16.02449673 13.16191636 26.50555425 29.6628115 31.41308594 49.78369141 C31.63738281 50.67443359 31.86167969 51.56517578 32.09277344 52.48291016 C37.30971865 77.53139367 32.03869508 103.50410237 18.44042969 124.91650391 C16.24065061 128.02755948 13.89008925 130.89027679 11.41308594 133.78369141 C12.71959106 134.22068359 12.71959106 134.22068359 14.05249023 134.66650391 C17.35414028 135.77952289 20.65014131 136.90702822 23.94360352 138.04394531 C25.35638272 138.52846382 26.77105008 139.0075193 28.18774414 139.48046875 C49.02563054 146.44862245 66.59724226 158.2880826 76.97558594 178.28369141 C91.24832627 208.14160796 91.24832627 208.14160796 87.22558594 219.84619141 C84.23520916 226.84202698 80.82322329 231.41777354 73.83459473 234.74396896 C65.93289411 237.1451247 57.4246076 236.47392853 49.24121094 236.43066406 C47.08849347 236.43744594 44.9357818 236.44635227 42.78308105 236.45721436 C36.95659572 236.47994612 31.13055467 236.47119641 25.30406189 236.45531893 C19.19618565 236.44262832 13.08834654 236.45440883 6.98046875 236.46224976 C-3.27513432 236.47133708 -13.53055713 236.45938234 -23.78613281 236.43554688 C-35.62986573 236.40833755 -47.47316823 236.41715235 -59.31689072 236.4446789 C-69.49979197 236.46739497 -79.68256392 236.47055778 -89.86548233 236.45748556 C-95.94111431 236.44970485 -102.01654422 236.44861164 -108.09216309 236.465168 C-113.80513073 236.47964967 -119.51754536 236.46952289 -125.23045349 236.44069672 C-127.32257674 236.43410573 -129.41474681 236.43594938 -131.5068512 236.44701004 C-152.48852684 236.54767983 -152.48852684 236.54767983 -159.58691406 230.78369141 C-165.48137065 224.6761338 -167.85072397 218.51719496 -167.77001953 209.94677734 C-167.46073433 206.29308822 -166.26266508 203.06524962 -164.96191406 199.65869141 C-164.68903564 198.92295898 -164.41615723 198.18722656 -164.13500977 197.42919922 C-163.30154552 195.20758672 -162.44614527 192.99544415 -161.58691406 190.78369141 C-161.34666504 190.1452832 -161.10641602 189.506875 -160.85888672 188.84912109 C-153.80019104 170.19578092 -141.5566123 154.89162065 -123.58691406 145.78369141 C-118.13819409 143.39208665 -112.52594356 141.45771572 -106.88916016 139.5625 C-104.00382417 138.58644254 -101.13930163 137.55717926 -98.27441406 136.52294922 C-95.71562418 135.59938599 -93.15133233 134.69148711 -90.58691406 133.78369141 C-91.07160156 133.24744141 -91.55628906 132.71119141 -92.05566406 132.15869141 C-101.33027054 121.31453614 -107.14594472 108.5837895 -110.58691406 94.78369141 C-110.81121094 93.96642578 -111.03550781 93.14916016 -111.26660156 92.30712891 C-116.62636869 69.17936662 -111.69700123 43.16758953 -99.77441406 22.90869141 C-95.91803926 16.97749898 -91.57060583 11.79325009 -86.58691406 6.78369141 C-85.92433594 6.08630859 -85.26175781 5.38892578 -84.57910156 4.67041016 C-77.96533326 -1.80504741 -69.9949928 -5.58716162 -61.58691406 -9.21630859 C-60.24886719 -9.79445312 -60.24886719 -9.79445312 -58.88378906 -10.38427734 C-39.84021406 -16.92666682 -15.700283 -12.03366306 0 0 Z M-64.58691406 20.78369141 C-65.61816406 21.50556641 -66.64941406 22.22744141 -67.71191406 22.97119141 C-79.73467857 33.66941406 -86.4926434 50.24616949 -87.76708984 66.01269531 C-88.9607874 86.6307187 -83.23097042 103.43982684 -69.79785156 119.34619141 C-68.23267793 121.07175385 -66.60238595 122.73926281 -64.93066406 124.36181641 C-61.30655184 128.10673237 -59.71065893 131.8633126 -59.48925781 137.08837891 C-59.92120919 143.34640618 -62.06832485 147.39422256 -66.65844727 151.74902344 C-70.46645724 154.39478877 -74.29915424 155.63010164 -78.69238281 157.02587891 C-80.4990292 157.62351773 -82.30566964 158.22117456 -84.11230469 158.81884766 C-86.93715966 159.73902294 -89.76330586 160.65509879 -92.59008789 161.56933594 C-109.45564078 167.04890518 -123.86957754 172.52610729 -133.06738281 188.71728516 C-138.86021651 199.37263431 -138.86021651 199.37263431 -141.58691406 210.78369141 C-121.63308251 210.91587859 -101.67924023 211.0463236 -81.72538471 211.17484283 C-72.45485726 211.23459079 -63.1843338 211.29486025 -53.91381836 211.35644531 C-43.19678761 211.42756745 -32.47974872 211.49731366 -21.76269531 211.56494141 C-20.89470763 211.57041866 -20.02671994 211.57589592 -19.1324296 211.58153915 C8.04960994 211.7521581 35.23042677 211.86004925 62.41308594 211.78369141 C60.17805982 200.14232308 54.81478357 187.25704531 46.41308594 178.78369141 C45.73632812 178.08115234 45.05957031 177.37861328 44.36230469 176.65478516 C36.6114006 169.17922402 27.31622817 165.98356553 17.23730469 162.69775391 C16.41773285 162.42987061 15.59816101 162.1619873 14.75375366 161.88598633 C11.33887311 160.77439728 7.92322871 159.66693876 4.49682617 158.59130859 C1.96568976 157.7930841 -0.55475957 156.96655508 -3.07519531 156.13525391 C-3.84092361 155.90270905 -4.60665192 155.67016418 -5.39558411 155.43057251 C-12.09584221 153.17873616 -15.88299776 149.19152401 -19.02441406 142.90869141 C-20.04038916 137.26438532 -19.53545318 132.08305819 -16.83691406 126.97119141 C-14.58691406 123.78369141 -14.58691406 123.78369141 -12.22363281 121.92431641 C-0.50455261 112.41015944 6.47060737 96.45662866 8.41308594 81.78369141 C10.14051569 61.96272233 5.36625864 42.3374944 -7.58691406 26.81103516 C-15.77006128 18.51600897 -26.28749833 12.53521762 -38.07910156 11.68994141 C-48.07724921 12.06370394 -56.52791435 14.95664514 -64.58691406 20.78369141 Z " fill="#000000" transform="translate(295.5869140625,240.21630859375)"/>
<path d="M0 0 C8.46502477 5.46793201 11.97641098 15.30669118 15.8125 24.1875 C16.35399132 25.40987162 16.89630426 26.63187962 17.43945312 27.85351562 C21.70313936 37.57988184 21.70313936 37.57988184 22.5 42.5 C23.36044922 42.39171875 23.36044922 42.39171875 24.23828125 42.28125 C53.28632166 39.10756425 53.28632166 39.10756425 62.5 45.5 C67.7363062 50.12605998 71.06458518 54.72656351 71.7109375 61.8125 C72.07588664 71.02044752 69.70962311 76.54424551 63.5625 83.25 C62.28052734 84.60351562 62.28052734 84.60351562 60.97265625 85.984375 C60.48337646 86.51426025 59.99409668 87.04414551 59.48999023 87.59008789 C57.5 89.5 57.5 89.5 54.29321289 91.87670898 C50.74701446 94.64728244 47.44436095 97.35964484 45.5 101.5 C44.84622649 108.18244834 47.68163651 114.84285595 49.8125 121.0625 C50.90072314 124.47162664 51.95122934 127.89139845 52.98828125 131.31640625 C53.23831406 132.12795166 53.48834686 132.93949707 53.74595642 133.77563477 C55.79088858 140.72989901 56.51183967 147.07963925 53.42895508 153.85327148 C50.02480969 160.01765548 45.19834149 164.23136463 38.5 166.5 C25.04388143 168.8154393 15.02357909 161.79405906 3.98828125 155.2265625 C3.04726563 154.67258789 2.10625 154.11861328 1.13671875 153.54785156 C-0.72245206 152.44662072 -2.57060983 151.32654565 -4.40625 150.18652344 C-5.25574219 149.67895508 -6.10523438 149.17138672 -6.98046875 148.6484375 C-7.73223389 148.18614746 -8.48399902 147.72385742 -9.25854492 147.24755859 C-11.52636653 146.25928667 -11.52636653 146.25928667 -13.97314453 147.18676758 C-16.51794259 148.50932494 -18.99396507 149.88061716 -21.44921875 151.36328125 C-22.84624023 152.19956055 -22.84624023 152.19956055 -24.27148438 153.05273438 C-26.19599364 154.21414284 -28.12047342 155.37560016 -30.04492188 156.53710938 C-49.42546772 168.13879696 -49.42546772 168.13879696 -61.5 166.5 C-67.73904109 164.76976022 -72.00381844 160.85863341 -75.5 155.5 C-79.64925542 147.54595565 -78.71624376 140.30738351 -76.49609375 131.8984375 C-76.08129803 130.25783327 -75.666587 128.61720764 -75.25195312 126.9765625 C-74.5943724 124.41714312 -73.93326546 121.85867496 -73.26977539 119.30078125 C-72.62802077 116.81466619 -71.99907186 114.32556195 -71.37109375 111.8359375 C-71.16906845 111.07437347 -70.96704315 110.31280945 -70.75889587 109.52816772 C-69.75863298 105.5451661 -69.0787179 102.42027828 -70.5 98.5 C-71.68649325 96.75616817 -71.68649325 96.75616817 -73.265625 95.30859375 C-73.82636719 94.75623047 -74.38710937 94.20386719 -74.96484375 93.63476562 C-75.55394531 93.07466797 -76.14304688 92.51457031 -76.75 91.9375 C-77.32363281 91.37353516 -77.89726562 90.80957031 -78.48828125 90.22851562 C-80.994497 87.78795245 -83.49214017 85.50615165 -86.25 83.34765625 C-88.47134177 81.52353358 -89.77773651 79.94739905 -91.25 77.5 C-91.65734375 76.84 -92.0646875 76.18 -92.484375 75.5 C-95.03502539 70.47718076 -95.19428446 65.01482772 -94.5 59.5 C-91.79033913 51.42941526 -87.87850461 46.71331002 -80.30078125 42.8828125 C-73.69897383 40.48070908 -66.42394552 41.1875956 -59.5 41.3125 C-58.04298257 41.32757259 -56.58595007 41.34125645 -55.12890625 41.35351562 C-51.58562075 41.38632097 -48.04290829 41.43796093 -44.5 41.5 C-44.33346924 40.97865479 -44.16693848 40.45730957 -43.99536133 39.92016602 C-41.95728823 33.66198596 -39.64235438 27.54316345 -37.1875 21.4375 C-36.82205078 20.49583984 -36.45660156 19.55417969 -36.08007812 18.58398438 C-32.93656776 10.78221513 -29.10498788 2.62984093 -20.96875 -0.875 C-14.25811822 -2.57389412 -6.4400419 -2.77417189 0 0 Z M-12.5 27.5 C-12.84780518 28.29696289 -13.19561035 29.09392578 -13.55395508 29.91503906 C-14.8525357 32.88384139 -16.15577365 35.85054232 -17.4621582 38.81591797 C-18.02554469 40.09732703 -18.58709268 41.37954611 -19.14672852 42.66259766 C-19.95359851 44.51158507 -20.76773841 46.35739457 -21.58203125 48.203125 C-22.06905518 49.31333008 -22.5560791 50.42353516 -23.05786133 51.56738281 C-24.33607143 54.16664804 -25.75738567 56.21009435 -27.5 58.5 C-27.5 59.16 -27.5 59.82 -27.5 60.5 C-36.23552557 65.23174302 -43.66235387 66.00570612 -53.5 66.1875 C-54.75167969 66.22166016 -56.00335938 66.25582031 -57.29296875 66.29101562 C-60.36188957 66.37300969 -63.43054206 66.44232019 -66.5 66.5 C-63.14941534 70.53874435 -59.71141387 74.35904509 -55.90722656 77.97412109 C-44.92187066 88.46587114 -44.92187066 88.46587114 -44.25268555 96.45117188 C-44.10960476 105.52994164 -45.60663869 113.41487856 -48.0625 122.125 C-48.73887928 124.57321275 -49.40723854 127.02365962 -50.06640625 129.4765625 C-50.36490479 130.53955566 -50.66340332 131.60254883 -50.97094727 132.69775391 C-51.48896826 135.4415679 -51.44056037 136.91005115 -50.5 139.5 C-49.26697144 138.7886792 -49.26697144 138.7886792 -48.0090332 138.06298828 C-44.94477736 136.29733659 -41.8788535 134.53465329 -38.81176758 132.77392578 C-37.48719833 132.01273114 -36.16329553 131.25037551 -34.84008789 130.48681641 C-32.93291434 129.38655156 -31.02334613 128.29054848 -29.11328125 127.1953125 C-28.52662186 126.8556546 -27.93996246 126.5159967 -27.33552551 126.16604614 C-19.93819913 121.93814761 -14.03464837 120.12529154 -5.5 121.5 C0.15715051 123.44267808 5.3379656 126.52221421 10.5 129.5 C11.6748999 130.17337402 11.6748999 130.17337402 12.87353516 130.86035156 C17.78209418 133.68640184 22.65173775 136.57184161 27.5 139.5 C28.85497266 135.76891586 28.12261747 133.23787177 27.06640625 129.4765625 C26.5878418 127.69572266 26.5878418 127.69572266 26.09960938 125.87890625 C25.41850451 123.41358883 24.73119604 120.94997528 24.03710938 118.48828125 C21.56358678 109.22128111 18.96144192 98.44284792 22.921875 89.21484375 C25.99169685 84.1350195 30.48739672 80.12862391 34.75 76.0625 C36.40290909 74.46156121 38.05405773 72.85880207 39.703125 71.25390625 C40.43176758 70.55595947 41.16041016 69.8580127 41.91113281 69.13891602 C43.61600983 67.76077952 43.61600983 67.76077952 43.5 66.5 C42.72398437 66.48541748 41.94796875 66.47083496 41.1484375 66.45581055 C37.59848227 66.38088234 34.04942157 66.28436887 30.5 66.1875 C29.27925781 66.16494141 28.05851562 66.14238281 26.80078125 66.11914062 C18.66169163 65.87716769 12.28423014 65.55422263 5.74609375 60.27734375 C3.12861196 57.04077061 1.33926435 53.80820933 -0.4375 50.0625 C-0.94410156 49.02319336 -0.94410156 49.02319336 -1.4609375 47.96289062 C-4.70293189 41.24033999 -7.65432521 34.39860554 -10.5 27.5 C-11.16 27.5 -11.82 27.5 -12.5 27.5 Z " fill="#000000" transform="translate(267.5,37.5)"/>
<path d="M0 0 C8.44630955 6.38623405 11.96135184 15.26340969 15.5625 24.9375 C15.5625 25.9275 15.5625 26.9175 15.5625 27.9375 C16.12646484 27.91655273 16.69042969 27.89560547 17.27148438 27.87402344 C19.86830249 27.79001499 22.46483362 27.73857771 25.0625 27.6875 C25.949375 27.65398437 26.83625 27.62046875 27.75 27.5859375 C34.51622791 27.48643415 40.00214281 28.63878289 45.08740234 33.3503418 C49.81949774 38.69427232 51.07785837 43.41803026 50.8515625 50.40234375 C50.080216 57.16726101 46.79549701 60.81170736 41.8840332 65.21142578 C36.66985403 69.6413841 36.66985403 69.6413841 34.12109375 75.73046875 C34.66086234 78.63015584 35.50821776 81.18400829 36.5625 83.9375 C41.64535086 101.94999912 41.64535086 101.94999912 37.9375 110.25 C35.28681376 114.88635933 31.89564096 117.61328486 27.25 120.25 C18.57197356 122.46996025 12.06562807 120.06960947 4.58984375 115.640625 C2.52753001 114.41075046 0.47405324 113.17134771 -1.56445312 111.90234375 C-4.65899961 110.07712613 -6.72440932 108.9565666 -10.359375 108.859375 C-14.74693347 110.39613406 -18.61891995 112.59818318 -22.625 114.9375 C-24.22142652 115.85630663 -25.81903475 116.77306393 -27.41796875 117.6875 C-28.11817139 118.09484375 -28.81837402 118.5021875 -29.53979492 118.921875 C-34.09501678 121.35976551 -38.39894756 121.39936731 -43.4375 120.9375 C-49.64612436 118.97143562 -53.3528741 115.93794456 -57.046875 110.62109375 C-61.59562565 101.84302718 -57.64135457 90.61683434 -55.04101562 81.74194336 C-54.80833984 80.91831299 -54.57566406 80.09468262 -54.3359375 79.24609375 C-54.11599121 78.51189209 -53.89604492 77.77769043 -53.66943359 77.02124023 C-53.37153868 74.34488961 -53.99908138 73.18305543 -55.4375 70.9375 C-57.68643745 68.60761488 -59.99181471 66.38417567 -62.36132812 64.1796875 C-66.53652042 60.1678968 -69.04569149 56.56914717 -69.90625 50.7890625 C-69.96693266 44.52357817 -69.81487245 39.66987048 -66.00390625 34.5234375 C-61.60999107 30.07473535 -56.18235598 27.91209055 -49.98828125 27.62109375 C-49.14072266 27.57919922 -48.29316406 27.53730469 -47.41992188 27.49414062 C-46.53884766 27.45482422 -45.65777344 27.41550781 -44.75 27.375 C-43.41098633 27.31022461 -43.41098633 27.31022461 -42.04492188 27.24414062 C-39.84259892 27.13814647 -37.64016527 27.03607949 -35.4375 26.9375 C-35.19104736 26.35782471 -34.94459473 25.77814941 -34.69067383 25.1809082 C-33.55609875 22.53180116 -32.40327449 19.89101686 -31.25 17.25 C-30.86263672 16.33798828 -30.47527344 15.42597656 -30.07617188 14.48632812 C-24.18178764 1.09000031 -14.52307363 -4.48895003 0 0 Z M-10.4375 32.9375 C-10.80101563 33.74574219 -11.16453125 34.55398437 -11.5390625 35.38671875 C-14.9992463 42.74182739 -17.51991612 47.27934655 -24.75 51.1875 C-28.59712207 52.26111546 -32.46517426 52.60863643 -36.4375 52.9375 C-36.02757812 53.46859375 -35.61765625 53.9996875 -35.1953125 54.546875 C-34.38707031 55.60648438 -34.38707031 55.60648438 -33.5625 56.6875 C-33.02882812 57.38359375 -32.49515625 58.0796875 -31.9453125 58.796875 C-26.92349889 65.92628914 -27.75556369 73.87588654 -28.890625 82.30078125 C-29.3555417 84.86114393 -29.85770798 87.40090992 -30.4375 89.9375 C-29.53128906 89.44378906 -28.62507813 88.95007813 -27.69140625 88.44140625 C-12.32431297 80.268455 -12.32431297 80.268455 -3 83.0625 C2.03005775 84.97321098 6.80939788 87.42698886 11.5625 89.9375 C11.3459375 89.0196875 11.129375 88.101875 10.90625 87.15625 C6.92259445 69.59865702 6.92259445 69.59865702 11.5625 60.9375 C13.46655142 58.19043345 15.47065484 55.54384429 17.5625 52.9375 C16.70527344 52.85113281 15.84804687 52.76476562 14.96484375 52.67578125 C1.89004504 51.0690698 1.89004504 51.0690698 -2.4375 45.9375 C-4.96920376 41.78868704 -6.90204288 37.54387135 -8.4375 32.9375 C-9.0975 32.9375 -9.7575 32.9375 -10.4375 32.9375 Z " fill="#000000" transform="translate(105.4375,85.0625)"/>
<path d="M0 0 C9.37932364 5.31614336 12.89699303 16.60273336 16.546875 26.16015625 C16.546875 26.82015625 16.546875 27.48015625 16.546875 28.16015625 C17.11083984 28.13920898 17.67480469 28.11826172 18.25585938 28.09667969 C20.85267749 28.01267124 23.44920862 27.96123396 26.046875 27.91015625 C26.93375 27.87664062 27.820625 27.843125 28.734375 27.80859375 C34.8761845 27.71827302 39.43379912 28.6399823 44.546875 32.16015625 C50.16358485 38.07248241 51.08484081 42.89924149 50.90625 50.91796875 C50.37083192 55.74837099 48.86915898 58.64285351 45.546875 62.16015625 C44.57105469 62.88332031 43.59523438 63.60648437 42.58984375 64.3515625 C37.71222168 68.04232688 37.71222168 68.04232688 34.546875 73.16015625 C34.52428296 79.52180921 36.98386121 85.68351213 38.86132812 91.69140625 C40.63865686 98.09181516 40.94461836 105.19125838 37.859375 111.22265625 C34.16312916 115.91788745 30.02190168 119.55229555 24.0234375 120.6015625 C13.00127407 121.06962697 4.85730069 116.05620852 -4.078125 110.16015625 C-7.08514632 107.91538566 -7.08514632 107.91538566 -9.40014648 108.39453125 C-11.63273572 109.22713915 -13.60571004 110.22926039 -15.67578125 111.41015625 C-16.46146484 111.85359375 -17.24714844 112.29703125 -18.05664062 112.75390625 C-18.86810547 113.21796875 -19.67957031 113.68203125 -20.515625 114.16015625 C-22.13020224 115.07912512 -23.74603731 115.99588852 -25.36328125 116.91015625 C-26.07621338 117.3175 -26.78914551 117.72484375 -27.52368164 118.14453125 C-32.88093912 120.96449723 -38.55227368 120.70355501 -44.453125 120.16015625 C-49.57466259 118.54525701 -53.91121199 114.88588796 -56.453125 110.16015625 C-59.01940791 102.63544241 -58.22641031 97.04434613 -55.83374023 89.60644531 C-52.4858845 80.27750889 -52.4858845 80.27750889 -53.38769531 70.79785156 C-56.25009697 66.83526856 -59.90832715 64.19214799 -63.89331055 61.44189453 C-67.27169684 58.6657906 -68.27845314 54.8857163 -69.265625 50.78515625 C-69.62292343 43.87738661 -67.87512043 38.56481734 -63.453125 33.16015625 C-58.88259971 29.70894328 -55.49462367 28.02613397 -49.78515625 28.0625 C-48.89248047 28.06572266 -47.99980469 28.06894531 -47.08007812 28.07226562 C-45.68692383 28.08483398 -45.68692383 28.08483398 -44.265625 28.09765625 C-43.32525391 28.10216797 -42.38488281 28.10667969 -41.41601562 28.11132812 C-39.09498788 28.12310999 -36.77408856 28.13956067 -34.453125 28.16015625 C-34.27571777 27.59530518 -34.09831055 27.0304541 -33.91552734 26.44848633 C-32.28089338 21.37729734 -30.42923669 16.62966848 -28.078125 11.84765625 C-27.51351562 10.67589844 -26.94890625 9.50414063 -26.3671875 8.296875 C-20.66477499 -1.04809897 -10.17867878 -3.48473875 0 0 Z M-9.453125 32.16015625 C-10.12408203 33.60648438 -10.12408203 33.60648438 -10.80859375 35.08203125 C-11.41861623 36.35838598 -12.02933013 37.63441042 -12.640625 38.91015625 C-12.93259766 39.544375 -13.22457031 40.17859375 -13.52539062 40.83203125 C-16.02552905 45.99360734 -18.85653519 49.06381833 -24.265625 51.34765625 C-28.00725454 52.30140496 -31.61321184 52.76292385 -35.453125 53.16015625 C-35.04320312 53.67964844 -34.63328125 54.19914062 -34.2109375 54.734375 C-33.67210937 55.43175781 -33.13328125 56.12914062 -32.578125 56.84765625 C-32.04445313 57.53214844 -31.51078125 58.21664062 -30.9609375 58.921875 C-26.69305373 65.2573605 -26.48460967 72.13389568 -27.90625 79.51171875 C-28.40131583 81.40004125 -28.92554659 83.28065816 -29.453125 85.16015625 C-29.453125 86.48015625 -29.453125 87.80015625 -29.453125 89.16015625 C-26.0446106 87.87142466 -22.98646385 86.34143031 -19.828125 84.53515625 C-14.26754518 81.77954347 -9.57584828 80.94888579 -3.453125 82.16015625 C0.73759489 83.85855352 4.60271527 85.96286974 8.546875 88.16015625 C9.536875 88.49015625 10.526875 88.82015625 11.546875 89.16015625 C11.4025 88.51691406 11.258125 87.87367188 11.109375 87.2109375 C7.19510004 68.15602953 7.19510004 68.15602953 11.859375 60.59765625 C12.72579346 59.42942235 13.62217348 58.28282204 14.546875 57.16015625 C15.5495029 55.82879789 16.55015171 54.49594084 17.546875 53.16015625 C16.75023437 53.0621875 15.95359375 52.96421875 15.1328125 52.86328125 C2.52149881 51.08358248 2.52149881 51.08358248 -1.8125 45.3671875 C-4.5673201 41.17824047 -6.61139355 36.8129515 -8.453125 32.16015625 C-8.783125 32.16015625 -9.113125 32.16015625 -9.453125 32.16015625 Z " fill="#000000" transform="translate(425.453125,84.83984375)"/>
</svg>
